G04*
G04 #@! TF.GenerationSoftware,Altium Limited,Altium Designer,24.8.2 (39)*
G04*
G04 Layer_Physical_Order=1*
G04 Layer_Color=255*
%FSLAX26Y26*%
%MOIN*%
G70*
G04*
G04 #@! TF.SameCoordinates,943EF9C2-7E4B-4E9F-8D88-1E315B4C2DD2*
G04*
G04*
G04 #@! TF.FilePolarity,Positive*
G04*
G01*
G75*
%ADD11C,0.010000*%
%ADD17C,0.019685*%
%ADD18C,0.060000*%
%ADD19R,0.070000X0.070000*%
%ADD20R,0.026475X0.026306*%
%ADD21R,0.029134X0.109843*%
%ADD22R,0.039848X0.041682*%
%ADD23R,0.041816X0.045532*%
%ADD24R,0.039848X0.045619*%
%ADD25R,0.031496X0.031496*%
%ADD26R,0.045619X0.039848*%
%ADD27R,0.047575X0.039848*%
%ADD28R,0.041816X0.044687*%
%ADD29R,0.074803X0.059055*%
%ADD30R,0.053150X0.015748*%
G04:AMPARAMS|DCode=31|XSize=15.748mil|YSize=25.591mil|CornerRadius=1.968mil|HoleSize=0mil|Usage=FLASHONLY|Rotation=90.000|XOffset=0mil|YOffset=0mil|HoleType=Round|Shape=RoundedRectangle|*
%AMROUNDEDRECTD31*
21,1,0.015748,0.021654,0,0,90.0*
21,1,0.011811,0.025591,0,0,90.0*
1,1,0.003937,0.010827,0.005906*
1,1,0.003937,0.010827,-0.005906*
1,1,0.003937,-0.010827,-0.005906*
1,1,0.003937,-0.010827,0.005906*
%
%ADD31ROUNDEDRECTD31*%
%ADD32R,0.031496X0.023622*%
%ADD33R,0.041662X0.051419*%
%ADD34R,0.039848X0.049533*%
%ADD35R,0.027559X0.033465*%
%ADD36R,0.027559X0.059055*%
%ADD37R,0.039370X0.031496*%
%ADD38R,0.102362X0.074803*%
%ADD39R,0.029528X0.033465*%
%ADD40O,0.009842X0.061024*%
%ADD41O,0.061024X0.009842*%
%ADD42R,0.049459X0.041662*%
%ADD43R,0.074803X0.051181*%
%ADD44R,0.020472X0.022047*%
%ADD45R,0.028163X0.026475*%
%ADD46R,0.026306X0.026475*%
%ADD47R,0.025591X0.013780*%
%ADD48R,0.025984X0.016142*%
%ADD49R,0.026475X0.028163*%
%ADD50O,0.009842X0.027559*%
%ADD51O,0.027559X0.009842*%
%ADD52R,0.102362X0.102362*%
%ADD54R,0.022638X0.013780*%
%ADD55R,0.013780X0.022638*%
%ADD56R,0.059055X0.059055*%
%ADD57C,0.059055*%
%ADD59C,0.057087*%
%ADD60C,0.062992*%
%ADD61R,0.062992X0.062992*%
%ADD62C,0.035433*%
%ADD65C,0.020000*%
%ADD66C,0.014492*%
%ADD67C,0.009467*%
%ADD68C,0.118110*%
%ADD69C,0.027559*%
%ADD70C,0.023622*%
G36*
X1780315Y927268D02*
X1705512D01*
Y876087D01*
X1780315D01*
Y927268D01*
D02*
G37*
G36*
X1760631Y876086D02*
X1725197D01*
Y856402D01*
X1760631Y856402D01*
Y876086D01*
D02*
G37*
G36*
X1725196Y1159551D02*
X1760630D01*
Y1179236D01*
X1725196Y1179235D01*
Y1159551D01*
D02*
G37*
G36*
X1705512Y1108370D02*
X1780315D01*
Y1159551D01*
X1705512D01*
Y1108370D01*
D02*
G37*
D11*
X459953Y771583D02*
X533630Y697905D01*
X644579D01*
X458000Y771583D02*
X459834Y773417D01*
X458000Y592398D02*
Y771583D01*
X790085Y617230D02*
X802000Y605315D01*
X827331D01*
X790000Y617230D02*
X790085D01*
X841729Y482003D02*
Y498158D01*
X847587Y504016D02*
X860717D01*
X841729Y498158D02*
X847587Y504016D01*
X840568Y480842D02*
X841729Y482003D01*
X817858Y480842D02*
X840568D01*
X1026000Y1058574D02*
X1047472Y1080047D01*
X1026000Y1057000D02*
Y1058574D01*
X1047472Y1080047D02*
Y1108465D01*
X773516Y1124000D02*
X774401D01*
X794000Y1143599D01*
Y1144516D01*
X741841Y1092325D02*
X773516Y1124000D01*
X726000Y1077401D02*
X740924Y1092325D01*
X741841D01*
X726000Y1076484D02*
Y1077401D01*
X1142842Y940158D02*
X1235465D01*
X1077000Y1006000D02*
X1142842Y940158D01*
X1003071Y1034071D02*
X1109300D01*
X976000Y1007000D02*
X1003071Y1034071D01*
X1200861Y1015861D02*
X1200862D01*
X1203898Y1018898D02*
X1235465D01*
X1181000Y996000D02*
X1200861Y1015861D01*
X1200862D02*
X1203898Y1018898D01*
X1131958Y979042D02*
Y995042D01*
X1131000Y996000D02*
X1131958Y995042D01*
X1173890Y688740D02*
X1186555D01*
X1224000Y716051D02*
X1264051Y676000D01*
X1218394Y678606D02*
X1221000Y676000D01*
X1186555Y688740D02*
X1196689Y678606D01*
X1264051Y676000D02*
X1266000D01*
X1196689Y678606D02*
X1218394D01*
X1197640Y640360D02*
Y649734D01*
Y640360D02*
X1201000Y637000D01*
X1178319Y669055D02*
X1197640Y649734D01*
X1173890Y669055D02*
X1178319D01*
X1172000Y670945D02*
X1173890Y669055D01*
X900165Y704479D02*
X905000Y709314D01*
X900165Y658465D02*
Y704479D01*
X905000Y709314D02*
Y713000D01*
X880480Y721480D02*
X895024Y736024D01*
X860795Y730795D02*
X881024Y751024D01*
X1014283D02*
X1027709Y764449D01*
X1020496Y736024D02*
X1047472Y763000D01*
X895024Y736024D02*
X1020496D01*
X881024Y751024D02*
X1014283D01*
X1027709Y764449D02*
Y766024D01*
X952000Y709527D02*
Y713000D01*
X919850Y677377D02*
X952000Y709527D01*
X919850Y658465D02*
Y677377D01*
X975042Y1006042D02*
X976000Y1005084D01*
X1021787Y900787D02*
X1070000Y949000D01*
X976000Y950000D02*
Y1005084D01*
X872354Y900787D02*
X1021787D01*
X1117000Y875314D02*
Y879000D01*
X1126213Y791535D02*
Y866101D01*
X1117000Y875314D02*
X1126213Y866101D01*
Y791535D02*
X1126223Y791526D01*
X1145976Y791614D02*
Y893142D01*
X1151834Y899000D01*
X1176000D01*
X1145898Y791535D02*
X1145976Y791614D01*
X1067000Y865213D02*
X1106449Y825764D01*
X1047795Y845394D02*
X1059992D01*
X1067000Y865213D02*
Y903000D01*
X1045189Y848000D02*
X1047795Y845394D01*
X1059992D02*
X1082079Y823307D01*
X996394Y695807D02*
Y711606D01*
X999000Y714213D01*
X956189Y683819D02*
X984406D01*
X996394Y695807D01*
X880480Y658465D02*
Y721480D01*
X860795Y658465D02*
Y730795D01*
X827331Y725331D02*
X905000Y803000D01*
Y841654D01*
X827331Y625000D02*
Y725331D01*
X939614Y667244D02*
X956189Y683819D01*
X971000Y625079D02*
X971079Y625000D01*
X973000D01*
X971000Y625079D02*
Y653000D01*
X969000Y655000D02*
X971000Y653000D01*
X1057315Y710315D02*
X1080465D01*
X1131958Y979042D02*
X1151157Y959843D01*
X1235465D01*
X952899Y1169465D02*
X967195Y1155169D01*
Y1150848D02*
X968732Y1149311D01*
X967195Y1150848D02*
Y1155169D01*
X968732Y1083032D02*
Y1149311D01*
X938000Y1184364D02*
X949000Y1173364D01*
Y1169465D02*
Y1173364D01*
Y1169465D02*
X952899D01*
X1185268Y791457D02*
X1185346Y791535D01*
X856079Y884512D02*
X872354Y900787D01*
X807499Y821089D02*
Y850499D01*
X805500Y819090D02*
X807499Y821089D01*
X1107000Y599285D02*
Y671244D01*
X1224000Y716051D02*
Y716968D01*
X1176000Y844249D02*
Y849000D01*
X1165661Y791614D02*
Y833910D01*
X1176000Y844249D01*
X1016000Y934213D02*
Y966000D01*
X1002181Y920394D02*
X1016000Y934213D01*
X918614Y920394D02*
X1002181D01*
X1165583Y791535D02*
X1165661Y791614D01*
X1627000Y1270000D02*
Y1347000D01*
X988339Y791614D02*
Y825039D01*
X973875Y839503D02*
X988339Y825039D01*
X973875Y839503D02*
Y843189D01*
X1008051Y791587D02*
Y876949D01*
Y791587D02*
X1008102Y791535D01*
X1008000Y877000D02*
X1008051Y876949D01*
X966236Y940236D02*
X976000Y950000D01*
X1185268Y791457D02*
Y791535D01*
Y784528D02*
Y791457D01*
X918614Y940236D02*
X966236D01*
X918535Y940158D02*
X918614Y940236D01*
X918535Y920472D02*
X918614Y920394D01*
X943968Y1058268D02*
X968732Y1083032D01*
X918535Y1058268D02*
X943968D01*
X1185189Y1055218D02*
Y1108386D01*
X1184000Y1054029D02*
X1185189Y1055218D01*
Y1108386D02*
X1185268Y1108465D01*
X1426500Y1347500D02*
Y1427500D01*
X1426000Y1428000D02*
X1426500Y1427500D01*
X1239000Y1340000D02*
X1275401D01*
X1426500Y1347500D02*
X1427000Y1347000D01*
X1423000Y1586000D02*
X1425000Y1584000D01*
Y1509236D02*
X1427000Y1507236D01*
X1425000Y1509236D02*
Y1584000D01*
X1235465Y1038583D02*
X1271096D01*
X1279076Y1046563D02*
Y1062529D01*
X1271096Y1038583D02*
X1279076Y1046563D01*
Y1062529D02*
X1294000Y1077453D01*
X1476500Y1347500D02*
Y1425500D01*
X1476000Y1426000D02*
X1476500Y1425500D01*
Y1347500D02*
X1477000Y1347000D01*
X1475689Y1508547D02*
Y1586689D01*
Y1508547D02*
X1477000Y1507236D01*
X1474378Y1588000D02*
X1475689Y1586689D01*
X1500354Y1280000D02*
X1514774Y1294419D01*
X1334484Y1280000D02*
X1500354D01*
X1514774Y1294419D02*
X1514774D01*
X1527000Y1306646D01*
Y1347000D01*
X1303000Y1311484D02*
X1334484Y1280000D01*
X1303000Y1311484D02*
Y1312401D01*
X1677000Y1271000D02*
Y1347000D01*
X988417Y1152781D02*
X1006636Y1171000D01*
X988417Y1108465D02*
Y1152781D01*
X1006636Y1171000D02*
X1010535D01*
X1275401Y1340000D02*
X1303000Y1312401D01*
X1327000Y673000D02*
Y715484D01*
X1326000Y716484D02*
X1327000Y715484D01*
X1218465Y791535D02*
X1224000Y786000D01*
X1185346Y791535D02*
X1218465D01*
X1185189Y764449D02*
Y791457D01*
X1005770Y457000D02*
Y513490D01*
X973000Y546260D02*
X1005770Y513490D01*
X919850Y490065D02*
Y512795D01*
Y490065D02*
X947678Y462238D01*
X958077D01*
X644579Y697905D02*
X646000Y696484D01*
X884496Y979732D02*
X884622Y979606D01*
X862836Y979732D02*
X884496D01*
X822923Y1019646D02*
X862836Y979732D01*
X809409Y948000D02*
X814409Y953000D01*
X763498Y948000D02*
X809409D01*
X751000Y960498D02*
X763498Y948000D01*
X865591Y953000D02*
X867591Y951000D01*
X882212Y959843D02*
X918535D01*
X882102Y959732D02*
X882212Y959843D01*
X876354Y959732D02*
X882102D01*
X867606Y950984D02*
X876354Y959732D01*
X867606Y950984D02*
X867606D01*
X867591Y951000D02*
X867606Y950984D01*
X884622Y979606D02*
X918457D01*
X918535Y979528D01*
X645000Y1019646D02*
X665913Y998732D01*
X679913D01*
X645000Y1019646D02*
X822923D01*
X855217Y1046783D02*
X883024Y1018976D01*
X893024D01*
X864490Y999291D02*
X893024D01*
X808924Y1054858D02*
Y1060560D01*
Y1054858D02*
X864490Y999291D01*
X794000Y1075484D02*
X808924Y1060560D01*
X855217Y1046783D02*
Y1231941D01*
X802000Y822590D02*
X805500Y819090D01*
X841344Y869934D02*
X856000Y884590D01*
X826934Y869934D02*
X841344D01*
X807499Y850499D02*
X826934Y869934D01*
X767000Y581000D02*
X771751D01*
X776381Y585630D02*
X827331D01*
X771751Y581000D02*
X776381Y585630D01*
X1098472Y1162000D02*
Y1250020D01*
X1108453Y1260000D01*
X1233498Y1162000D02*
X1234000Y1162502D01*
X1157528Y1162000D02*
X1233498D01*
X1106527Y1108465D02*
Y1153945D01*
X1098472Y1162000D02*
X1106527Y1153945D01*
X795000Y1359410D02*
Y1363410D01*
Y1359410D02*
X797000Y1357410D01*
X862197Y1250732D02*
X874008D01*
X805428Y1307501D02*
X862197Y1250732D01*
X805428Y1307501D02*
Y1348982D01*
X797000Y1357410D02*
X805428Y1348982D01*
X1071572Y1310501D02*
Y1357982D01*
X1080000Y1366410D01*
X1011803Y1250732D02*
X1071572Y1310501D01*
X999992Y1250732D02*
X1011803D01*
X999992D02*
X1001000Y1251740D01*
Y1301000D01*
X735234Y877736D02*
X751000Y893502D01*
X672381Y877736D02*
X735234D01*
X672381D02*
X677402Y882756D01*
X672381Y877736D02*
X677402Y882756D01*
X645000Y850354D02*
X672381Y877736D01*
X645000Y850354D02*
X672381Y877736D01*
X645000Y1019646D02*
X665913Y998732D01*
X679913D01*
X645000Y850354D02*
X672381Y877736D01*
X545548Y1021000D02*
X643646D01*
X545548Y848000D02*
X642646D01*
X645000Y850354D01*
X722516Y1149000D02*
X726000Y1145516D01*
X663000Y1149000D02*
X722516D01*
X868138Y1244862D02*
X871073Y1247797D01*
X855217Y1231941D02*
X868138Y1244862D01*
X905000Y841654D02*
X905079Y841732D01*
X918535D01*
X871073Y1247797D02*
X874008Y1250732D01*
X940346Y794000D02*
X968654D01*
X1074146Y731890D02*
Y755854D01*
Y731890D02*
X1076035Y730000D01*
X1086842Y791535D02*
Y818543D01*
X1047472Y763000D02*
Y791535D01*
X1106449Y791614D02*
Y825764D01*
X1067157Y762843D02*
X1074146Y755854D01*
X1067157Y762843D02*
Y791535D01*
X1185189Y791457D02*
X1185268Y791535D01*
X988339Y791614D02*
X988417Y791535D01*
X968654Y794000D02*
X968732Y793921D01*
Y791535D02*
Y793921D01*
X1106449Y791614D02*
X1106527Y791535D01*
X1126223Y736407D02*
Y791526D01*
Y736407D02*
X1126232Y736398D01*
X1171763Y751024D02*
X1185189Y764449D01*
X1156114Y751024D02*
X1171763D01*
X1145917Y740827D02*
X1156114Y751024D01*
X1145917Y736398D02*
Y740827D01*
X1082079Y823307D02*
X1086842Y818543D01*
X1082079Y823307D02*
Y823307D01*
X1076035Y730000D02*
X1080465D01*
X973883Y493883D02*
X974000Y494000D01*
X949747Y493883D02*
X973883D01*
X717811Y375323D02*
X742779Y350354D01*
X549389Y430230D02*
X638000D01*
X543000Y423841D02*
X549389Y430230D01*
X634885Y472885D02*
X638000Y469770D01*
X546115Y472885D02*
X638000D01*
X717969Y530677D02*
X729000Y519646D01*
X668677Y530677D02*
X717969D01*
X638000Y500000D02*
X668677Y530677D01*
X638000Y472885D02*
Y500000D01*
X939614Y504016D02*
X949747Y493883D01*
X983354Y565866D02*
X992860Y556360D01*
X981780Y565866D02*
X983354D01*
X1005640Y556360D02*
X1009000Y553000D01*
X992860Y556360D02*
X1005640D01*
X993622Y577622D02*
X1113576D01*
X1114954Y579000D01*
X985614Y585630D02*
X993622Y577622D01*
X973000Y585630D02*
X985614D01*
X1107000Y599285D02*
X1114954Y591332D01*
X1080732Y636268D02*
X1081000Y636000D01*
X1080732Y636268D02*
Y670677D01*
X1080465Y670945D02*
X1080732Y670677D01*
X1167811Y626022D02*
Y638540D01*
X1155193Y651157D02*
X1167811Y638540D01*
X1154878Y651157D02*
X1155193D01*
X1145917Y660118D02*
X1154878Y651157D01*
X1145917Y660118D02*
Y664547D01*
X751764Y542410D02*
X789323D01*
X729000Y519646D02*
X751764Y542410D01*
X812858Y565945D02*
X827331D01*
X789323Y542410D02*
X812858Y565945D01*
X668677Y375323D02*
X717811D01*
X729000Y350354D02*
X742779D01*
X638000Y406000D02*
Y430230D01*
Y406000D02*
X668677Y375323D01*
X742779Y350354D02*
X775181Y382756D01*
Y459379D01*
X827331Y511529D01*
Y546260D01*
X987669Y602331D02*
X1004315D01*
X1007000Y599646D01*
X984685Y605315D02*
X987669Y602331D01*
X973000Y605315D02*
X984685D01*
X1007000Y630315D02*
Y630354D01*
X1001764Y625079D02*
X1007000Y630315D01*
X973079Y625079D02*
X1001764D01*
X973000Y625000D02*
X973079Y625079D01*
X1080465Y690630D02*
Y707000D01*
X1106547Y715446D02*
X1115387Y706606D01*
X1136394D01*
X1106547Y715446D02*
Y736398D01*
X1136394Y706606D02*
X1139000Y704000D01*
X826077Y341153D02*
X836000Y331230D01*
X825883Y344202D02*
X826077Y344007D01*
Y341153D02*
Y344007D01*
X811205Y474189D02*
X817858Y480842D01*
X811205Y358795D02*
Y474189D01*
Y358795D02*
X825798Y344202D01*
X825883D01*
X836000Y240929D02*
Y331230D01*
Y240929D02*
X837964Y238964D01*
X960173Y386000D02*
X973318D01*
X917905Y428268D02*
X960173Y386000D01*
X900165Y483622D02*
Y512795D01*
X908355Y461732D02*
Y475432D01*
X900165Y483622D02*
X908355Y475432D01*
X886850Y428268D02*
X917905D01*
X873000Y481882D02*
X877331D01*
X880402Y484953D01*
Y504016D01*
X880480Y504094D01*
Y512795D01*
X873000Y442118D02*
X877921D01*
X880992Y434126D02*
Y439047D01*
X877921Y442118D02*
X880992Y439047D01*
Y434126D02*
X886850Y428268D01*
X841795Y451158D02*
X852370Y461732D01*
X912000D01*
X835890Y451158D02*
X841795D01*
X834000Y449268D02*
X835890Y451158D01*
X543000Y476000D02*
X546115Y472885D01*
X1080465Y690630D02*
X1112815D01*
X1124342Y679103D01*
Y666437D02*
X1126232Y664547D01*
X1124342Y666437D02*
Y679103D01*
X1172000Y690630D02*
X1173890Y688740D01*
X1126232Y664547D02*
X1145917D01*
D17*
X1735040Y1159551D02*
G03*
X1735040Y1159551I-9842J0D01*
G01*
X1770473D02*
G03*
X1770473Y1159551I-9842J0D01*
G01*
X1735040Y876087D02*
G03*
X1735040Y876087I-9842J0D01*
G01*
X1770473D02*
G03*
X1770473Y876087I-9842J0D01*
G01*
D18*
X1299000Y333000D02*
D03*
D19*
X1204000Y428000D02*
D03*
X1394000D02*
D03*
X1204000Y238000D02*
D03*
X1394000D02*
D03*
D20*
X790000Y656770D02*
D03*
Y617230D02*
D03*
X638000Y430230D02*
D03*
Y469770D02*
D03*
D21*
X1427000Y1347000D02*
D03*
Y1507236D02*
D03*
X1477000Y1347000D02*
D03*
Y1507236D02*
D03*
X1527000Y1347000D02*
D03*
Y1507236D02*
D03*
X1577000Y1347000D02*
D03*
Y1507236D02*
D03*
X1627000Y1347000D02*
D03*
Y1507236D02*
D03*
X1677000Y1347000D02*
D03*
Y1507236D02*
D03*
X1727000Y1347000D02*
D03*
Y1507236D02*
D03*
D22*
X1303000Y1380516D02*
D03*
Y1311484D02*
D03*
X1326000Y716484D02*
D03*
Y785516D02*
D03*
X646000Y765516D02*
D03*
Y696484D02*
D03*
X726000Y1076484D02*
D03*
Y1145516D02*
D03*
X794000Y1075484D02*
D03*
Y1144516D02*
D03*
X1224000Y786000D02*
D03*
Y716968D02*
D03*
D23*
X1586000Y557502D02*
D03*
Y624498D02*
D03*
X1234000Y1162502D02*
D03*
Y1229498D02*
D03*
X751000Y893502D02*
D03*
Y960498D02*
D03*
D24*
X1521000Y559452D02*
D03*
Y624548D02*
D03*
X1458000Y730452D02*
D03*
Y795548D02*
D03*
X1477000Y1143000D02*
D03*
Y1077905D02*
D03*
X1416000Y1142547D02*
D03*
Y1077453D02*
D03*
X1294000Y1142547D02*
D03*
Y1077453D02*
D03*
X1537000Y1143000D02*
D03*
Y1077905D02*
D03*
X1353000Y1142547D02*
D03*
Y1077453D02*
D03*
X577000Y763000D02*
D03*
Y697905D02*
D03*
D25*
X1578528Y686000D02*
D03*
X1519472D02*
D03*
X1098472Y1162000D02*
D03*
X1157528D02*
D03*
D26*
X1598547Y735000D02*
D03*
X1533453D02*
D03*
X1173547Y1260000D02*
D03*
X1108453D02*
D03*
X480452Y1021000D02*
D03*
X545548D02*
D03*
X480452Y848000D02*
D03*
X545548D02*
D03*
X1114954Y591332D02*
D03*
X1180049D02*
D03*
X1114954Y541332D02*
D03*
X1180049D02*
D03*
D27*
X1534000Y798000D02*
D03*
X1597139D02*
D03*
D28*
X1390000Y731898D02*
D03*
Y796102D02*
D03*
X1306000Y837898D02*
D03*
Y902102D02*
D03*
D29*
X1742914Y1057189D02*
D03*
Y978449D02*
D03*
D30*
X1636614Y1069000D02*
D03*
Y1043409D02*
D03*
Y1017819D02*
D03*
Y992228D02*
D03*
Y966638D02*
D03*
D31*
X1457354Y844409D02*
D03*
Y895591D02*
D03*
X1376646Y844409D02*
D03*
Y870000D02*
D03*
Y895591D02*
D03*
D32*
X1378000Y927409D02*
D03*
Y978591D02*
D03*
D33*
X1500000Y851446D02*
D03*
Y912554D02*
D03*
D34*
X1554000Y913590D02*
D03*
Y852410D02*
D03*
X802000Y822590D02*
D03*
Y761410D02*
D03*
X856000Y884590D02*
D03*
Y823410D02*
D03*
X1080000Y1366410D02*
D03*
Y1427590D02*
D03*
X795000Y1363410D02*
D03*
Y1424590D02*
D03*
D35*
X1521622Y1588000D02*
D03*
X1474378D02*
D03*
D36*
X642472Y252898D02*
D03*
X701528D02*
D03*
X524362D02*
D03*
D37*
X469244Y221992D02*
D03*
X756646D02*
D03*
X469244Y146008D02*
D03*
X756646D02*
D03*
D38*
X645000Y850354D02*
D03*
Y1019646D02*
D03*
X729000Y350354D02*
D03*
Y519646D02*
D03*
D39*
X814409Y953000D02*
D03*
X865591D02*
D03*
D40*
X968732Y1108465D02*
D03*
X988417D02*
D03*
X1008102D02*
D03*
X1027787D02*
D03*
X1047472D02*
D03*
X1067157D02*
D03*
X1086842D02*
D03*
X1106527D02*
D03*
X1126213D02*
D03*
X1145898D02*
D03*
X1165583D02*
D03*
X1185268D02*
D03*
Y791535D02*
D03*
X1165583D02*
D03*
X1145898D02*
D03*
X1126213D02*
D03*
X1106527D02*
D03*
X1086842D02*
D03*
X1067157D02*
D03*
X1047472D02*
D03*
X1027787D02*
D03*
X1008102D02*
D03*
X988417D02*
D03*
X968732D02*
D03*
D41*
X1235465Y1058268D02*
D03*
Y1038583D02*
D03*
Y1018898D02*
D03*
Y999213D02*
D03*
Y979528D02*
D03*
Y959843D02*
D03*
Y940158D02*
D03*
Y920472D02*
D03*
Y900787D02*
D03*
Y881102D02*
D03*
Y861417D02*
D03*
Y841732D02*
D03*
X918535D02*
D03*
Y861417D02*
D03*
Y881102D02*
D03*
Y900787D02*
D03*
Y920472D02*
D03*
Y940158D02*
D03*
Y959843D02*
D03*
Y979528D02*
D03*
Y999213D02*
D03*
Y1018898D02*
D03*
Y1038583D02*
D03*
Y1058268D02*
D03*
D42*
X1010535Y1171000D02*
D03*
X947465D02*
D03*
D43*
X999992Y1250732D02*
D03*
Y1467268D02*
D03*
X874008D02*
D03*
Y1250732D02*
D03*
D44*
X1007000Y599646D02*
D03*
Y630354D02*
D03*
D45*
X875646Y238964D02*
D03*
X837964D02*
D03*
X993159Y335000D02*
D03*
X1030841D02*
D03*
X973318Y386000D02*
D03*
X1011000D02*
D03*
D46*
X834230Y333000D02*
D03*
X873770D02*
D03*
X1005770Y457000D02*
D03*
X966230D02*
D03*
D47*
X834000Y449268D02*
D03*
Y482732D02*
D03*
X912000Y428268D02*
D03*
Y461732D02*
D03*
D48*
X873000Y481882D02*
D03*
Y442118D02*
D03*
D49*
X543000Y386159D02*
D03*
Y423841D02*
D03*
Y513682D02*
D03*
Y476000D02*
D03*
X702000Y617159D02*
D03*
Y654841D02*
D03*
D50*
X939535Y658465D02*
D03*
X919850D02*
D03*
X900165D02*
D03*
X880480D02*
D03*
X860795D02*
D03*
Y512795D02*
D03*
X880480D02*
D03*
X900165D02*
D03*
X919850D02*
D03*
X939535D02*
D03*
D51*
X827331Y625000D02*
D03*
Y605315D02*
D03*
Y585630D02*
D03*
Y565945D02*
D03*
Y546260D02*
D03*
X973000D02*
D03*
Y565945D02*
D03*
Y585630D02*
D03*
Y605315D02*
D03*
Y625000D02*
D03*
D52*
X900165Y585630D02*
D03*
D54*
X1080465Y730000D02*
D03*
Y710315D02*
D03*
Y690630D02*
D03*
Y670945D02*
D03*
X1172000D02*
D03*
Y690630D02*
D03*
Y710315D02*
D03*
Y730000D02*
D03*
D55*
X1106547Y664547D02*
D03*
X1126232D02*
D03*
X1145917D02*
D03*
Y736398D02*
D03*
X1126232D02*
D03*
X1106547D02*
D03*
D56*
X459953Y594417D02*
D03*
D57*
Y771583D02*
D03*
X204047D02*
D03*
Y594417D02*
D03*
D59*
X1636614Y919394D02*
D03*
Y1116244D02*
D03*
D60*
X375000Y192000D02*
D03*
D61*
X275000D02*
D03*
D62*
X553890Y184000D02*
D03*
X672000D02*
D03*
D65*
X577000Y763000D02*
Y764840D01*
X536656Y774764D02*
X567076D01*
X577000Y764840D01*
X535210Y776210D02*
X536656Y774764D01*
X1204000Y238000D02*
X1394000D01*
Y172000D02*
X1396000Y170000D01*
X1394000Y172000D02*
Y238000D01*
X1204000Y428000D02*
X1394000D01*
X1179501Y452499D02*
X1204000Y428000D01*
X1179501Y452499D02*
Y498332D01*
X702071Y617230D02*
X790000D01*
X702000Y654841D02*
X703928Y656770D01*
X790000D01*
X1379811Y976780D02*
X1383748D01*
X1409276Y951252D01*
X1378000Y978591D02*
X1379811Y976780D01*
X1433748Y951252D02*
X1454559Y930441D01*
X1409276Y951252D02*
X1433748D01*
X1338000Y972220D02*
X1340045D01*
X1344605Y976780D01*
X1376189D02*
X1378000Y978591D01*
X1344605Y976780D02*
X1376189D01*
X1210045Y644000D02*
X1297000D01*
X1201000Y637000D02*
X1203045D01*
X1210045Y644000D01*
X1297000D02*
Y683506D01*
X969000Y655000D02*
X1002000D01*
X1057315Y710315D01*
X1416000Y1142274D02*
X1476274D01*
X1353500Y1142047D02*
X1354000Y1142547D01*
X1294000Y1141547D02*
X1295000Y1142547D01*
X1279841Y700665D02*
X1297000Y683506D01*
X1233924Y785758D02*
X1279841D01*
X1325758D01*
X1233576Y785016D02*
Y785410D01*
X1279841Y700665D02*
Y785758D01*
X1297000Y644000D02*
X1328000D01*
X938000Y1184364D02*
Y1231000D01*
X1559300Y1168185D02*
X1607815D01*
X1537000Y1145886D02*
X1559300Y1168185D01*
X1677000Y1507236D02*
X1678000Y1508236D01*
Y1591000D02*
X1679000Y1592000D01*
X1678000Y1508236D02*
Y1591000D01*
X1626500Y1507736D02*
X1627000Y1507236D01*
X1626500Y1507736D02*
Y1591500D01*
X1626000Y1592000D02*
X1626500Y1591500D01*
X1294000Y1141547D02*
Y1142547D01*
Y1139662D02*
Y1141547D01*
X1537000Y1143000D02*
Y1145886D01*
X1328000Y644000D02*
X1393000Y579000D01*
X1554000Y913590D02*
X1563924Y923514D01*
X1553482Y913072D02*
X1554000Y913590D01*
X1545905Y1069000D02*
X1636614D01*
X1537000Y1077905D02*
Y1080791D01*
Y1077905D02*
X1545905Y1069000D01*
X1475857Y1077453D02*
X1477000Y1078596D01*
X1353000Y1077453D02*
X1475857D01*
X1521000Y1632000D02*
X1521622Y1631378D01*
Y1588000D02*
Y1631378D01*
X1454559Y897717D02*
Y930441D01*
X1595638Y966638D02*
X1636614D01*
X1563924Y934924D02*
X1595638Y966638D01*
X1563924Y923514D02*
Y934924D01*
X1284076Y1129738D02*
X1294000Y1139662D01*
X1272360Y1123547D02*
X1278551Y1129738D01*
X1243171Y1066718D02*
Y1094456D01*
X1278551Y1129738D02*
X1284076D01*
X1243171Y1094456D02*
X1272263Y1123547D01*
X1272360D01*
X1080000Y1427590D02*
X1128590D01*
X1129000Y1428000D01*
X742000Y1425000D02*
X742410Y1424590D01*
X795000D01*
X1376646Y870000D02*
X1415000D01*
X1577000Y1507236D02*
X1627000D01*
X1456685Y895591D02*
X1457354D01*
X1454559Y897717D02*
X1456685Y895591D01*
X1329872Y927409D02*
X1378000D01*
X1306000Y903537D02*
X1329872Y927409D01*
X1306000Y902102D02*
Y903537D01*
X1354000Y1142547D02*
X1416000D01*
X1295000D02*
X1353000D01*
X1416000Y1142274D02*
Y1142547D01*
X1476274Y1142274D02*
X1477000Y1143000D01*
Y1077905D02*
X1537000D01*
X1633554Y844554D02*
X1635000Y846000D01*
X1601003Y798000D02*
X1633554Y830551D01*
Y844554D01*
X1586500Y504500D02*
Y557002D01*
Y504500D02*
X1587000Y504000D01*
X1585025Y558477D02*
X1586500Y557002D01*
X1521000Y621662D02*
Y624548D01*
X1511076Y611738D02*
X1521000Y621662D01*
X1475452Y579000D02*
X1508190Y611738D01*
X1511076D01*
X1393000Y579000D02*
X1475452D01*
X1316908Y850241D02*
X1331296D01*
X1306000Y837898D02*
Y839333D01*
X1331296Y850241D02*
X1348850Y867795D01*
Y882934D02*
X1360916Y895000D01*
X1348850Y867795D02*
Y882934D01*
X1360916Y895000D02*
X1373850D01*
X1306000Y839333D02*
X1316908Y850241D01*
X1377363Y810174D02*
X1390000Y797537D01*
X1366002Y821535D02*
X1377363Y810174D01*
X1315000Y836463D02*
X1329927Y821535D01*
X1366002D01*
X1390000Y796102D02*
Y797537D01*
X1294000Y1077453D02*
X1353000D01*
X1391000Y686000D02*
X1392000Y685000D01*
X1390723Y731175D02*
X1391000Y730898D01*
Y686000D02*
Y730898D01*
X1390000Y731898D02*
X1390723Y731175D01*
X1597139Y798000D02*
X1601003D01*
X1521975Y558477D02*
X1585025D01*
X1521000Y559452D02*
X1521975Y558477D01*
X1390723Y731175D02*
X1457277D01*
X1458000Y730452D01*
X1597843Y735704D02*
Y797296D01*
Y735704D02*
X1598547Y735000D01*
X1597139Y798000D02*
X1597843Y797296D01*
X1583352Y807924D02*
Y825927D01*
X1563924Y837643D02*
X1571636D01*
X1554000Y847567D02*
X1563924Y837643D01*
X1571636D02*
X1583352Y825927D01*
X1554000Y847567D02*
Y852410D01*
X1583352Y807924D02*
X1593276Y798000D01*
X1597139D01*
X1582264Y628235D02*
Y682264D01*
Y628235D02*
X1586000Y624498D01*
X1578528Y686000D02*
X1582264Y682264D01*
X1519472Y686000D02*
X1520236Y685236D01*
Y625311D02*
Y685236D01*
Y625311D02*
X1521000Y624548D01*
X1532774Y796774D02*
X1533726Y797726D01*
Y735274D02*
Y797726D01*
X1534000Y798000D01*
X1533453Y735000D02*
X1533726Y735274D01*
X1458000Y795548D02*
X1459226Y796774D01*
X1532774D01*
X1457677Y795870D02*
X1458000Y795548D01*
X1457354Y844409D02*
X1457677Y844087D01*
Y795870D02*
Y844087D01*
X989077Y331762D02*
X992315Y335000D01*
X873770Y332915D02*
X874708Y331977D01*
X873770Y332915D02*
Y333000D01*
X989077Y330918D02*
Y331762D01*
X896455Y313000D02*
X936000D01*
X938045D01*
X938308Y313263D02*
X971422D01*
X989077Y330918D01*
X992315Y335000D02*
X993159D01*
X1457354Y844409D02*
X1492964D01*
X1500000Y851446D01*
Y912554D02*
X1500518Y913072D01*
X1553482D01*
X1325758Y785758D02*
X1326000Y785516D01*
X1233576Y785410D02*
X1233924Y785758D01*
X1477000Y1143000D02*
X1537000D01*
X1302000Y1381516D02*
Y1429000D01*
Y1381516D02*
X1303000Y1380516D01*
X1113000Y499000D02*
X1113977Y499977D01*
Y540355D02*
X1114954Y541332D01*
X1113977Y499977D02*
Y540355D01*
X977616Y437549D02*
X992719Y422446D01*
X1006554D01*
X1008000Y421000D01*
X966230Y457000D02*
X969384Y453847D01*
X977616Y437549D02*
Y437549D01*
X969384Y445782D02*
Y453847D01*
Y445782D02*
X977616Y437549D01*
X756323Y104323D02*
Y145685D01*
X756646Y146008D01*
X756000Y104000D02*
X756323Y104323D01*
X756646Y146008D02*
Y221992D01*
X469000Y104000D02*
Y108000D01*
X468000Y103000D02*
X469000Y104000D01*
Y108000D02*
X469244Y108244D01*
Y146008D01*
Y221992D01*
X375000Y192000D02*
X435898Y252898D01*
X524362D01*
X642024Y252449D02*
X642472Y252898D01*
X585449Y252449D02*
X642024D01*
X585000Y252000D02*
X585449Y252449D01*
X747117Y822590D02*
X802000D01*
X695924Y771398D02*
X747117Y822590D01*
X651881Y771398D02*
X695924D01*
X646000Y765516D02*
X651881Y771398D01*
X539762Y514341D02*
X540421Y513682D01*
X493000Y529549D02*
X508208Y514341D01*
X539762D01*
X540421Y513682D02*
X543000D01*
X493000Y529549D02*
Y531000D01*
X793446Y703446D02*
Y752856D01*
X802000Y761410D01*
X792000Y702000D02*
X793446Y703446D01*
X802000Y761410D02*
X803535Y759875D01*
X803535D01*
X846076Y813486D02*
X856000Y823410D01*
X846076Y785076D02*
Y813486D01*
X830263Y769263D02*
X846076Y785076D01*
X812924Y769263D02*
X830263D01*
X803535Y759875D02*
X812924Y769263D01*
X874708Y331977D02*
X892609Y314076D01*
X874708Y331977D02*
Y332062D01*
Y239903D02*
Y331977D01*
X702500Y655341D02*
Y695500D01*
X703000Y696000D01*
X702000Y654841D02*
X702500Y655341D01*
X702000Y581000D02*
Y617159D01*
X543000Y385315D02*
Y386159D01*
Y385315D02*
X564869Y363446D01*
X576554D01*
X578000Y362000D01*
X1196762Y1239671D02*
X1223827D01*
X1176433Y1260000D02*
X1196762Y1239671D01*
X1223827D02*
X1234000Y1229498D01*
X1173547Y1260000D02*
X1176433D01*
X1173547D02*
Y1357453D01*
X1173000Y1358000D02*
X1173547Y1357453D01*
X1014433Y1171000D02*
X1047987Y1204554D01*
X1063554D02*
X1065000Y1206000D01*
X1047987Y1204554D02*
X1063554D01*
X1010535Y1171000D02*
X1014433D01*
X421000Y1021000D02*
X480452D01*
X420500Y847500D02*
X479952D01*
X480452Y848000D01*
X420000Y847000D02*
X420500Y847500D01*
X1009000Y550955D02*
Y553000D01*
X1114954Y541332D02*
Y579000D01*
Y591332D01*
X895379Y314076D02*
X896455Y313000D01*
X892609Y314076D02*
X895379D01*
X873770Y333000D02*
X874708Y332062D01*
Y239903D02*
X875646Y238964D01*
X1167811Y601255D02*
X1177735Y591332D01*
X1167811Y601255D02*
Y626022D01*
X1177735Y591332D02*
X1180049D01*
Y541332D02*
Y591332D01*
X1180501Y503332D02*
Y540879D01*
X1180049Y541332D02*
X1180501Y540879D01*
X1179501Y498332D02*
Y502332D01*
X1180501Y503332D01*
D66*
X1033685Y333000D02*
X1299000D01*
X1031685Y335000D02*
X1033685Y333000D01*
X1030841Y335000D02*
X1031685D01*
X1011000Y386000D02*
X1011844D01*
X1030341Y367503D01*
Y335500D02*
Y367503D01*
D67*
X1308671Y996604D02*
X1326670Y1014603D01*
X1268485Y999141D02*
X1271022Y996604D01*
X1268485Y979599D02*
X1271022Y982136D01*
X1271022Y996604D02*
X1308671D01*
X1314664Y982136D02*
X1332662Y1000135D01*
X1235536Y979599D02*
X1268485D01*
X1235465Y979528D02*
X1235536Y979599D01*
X1271022Y982136D02*
X1314664D01*
X1332662Y1000135D02*
X1607948D01*
X1235536Y999141D02*
X1268485D01*
X1235465Y999213D02*
X1235536Y999141D01*
X1326670Y1014603D02*
X1541691D01*
X1612714Y995369D02*
X1633474D01*
X1607948Y1000135D02*
X1612714Y995369D01*
X1633474D02*
X1636614Y992228D01*
X1604457Y1014602D02*
X1604533Y1014679D01*
X1541691Y1014602D02*
X1604457D01*
X1541691Y1014603D02*
X1541691Y1014602D01*
X1633474Y1014679D02*
X1636614Y1017819D01*
X1604533Y1014679D02*
X1633474D01*
D68*
X100000Y100000D02*
D03*
Y1700000D02*
D03*
X1700000Y100000D02*
D03*
Y1700000D02*
D03*
D69*
X535210Y776210D02*
D03*
X1396000Y170000D02*
D03*
X1338000Y972220D02*
D03*
X1201000Y637000D02*
D03*
X1070000Y949000D02*
D03*
X969000Y655000D02*
D03*
X1176000Y849000D02*
D03*
X938000Y1231000D02*
D03*
X1679000Y1592000D02*
D03*
X1626000D02*
D03*
X1607815Y1168185D02*
D03*
X1016000Y966000D02*
D03*
X1584000Y1069000D02*
D03*
X1521000Y1632000D02*
D03*
X1129000Y1428000D02*
D03*
X742000Y1425000D02*
D03*
X1415000Y870000D02*
D03*
X1635000Y846000D02*
D03*
X1587000Y504000D02*
D03*
X1393000Y579000D02*
D03*
X1392000Y685000D02*
D03*
X936000Y313000D02*
D03*
X1113000Y499000D02*
D03*
X1008000Y421000D02*
D03*
X756000Y104000D02*
D03*
X468000Y103000D02*
D03*
X585000Y252000D02*
D03*
X1302000Y1429000D02*
D03*
X493000Y531000D02*
D03*
X703000Y696000D02*
D03*
X702000Y581000D02*
D03*
X578000Y362000D02*
D03*
X1173000Y1358000D02*
D03*
X1065000Y1206000D02*
D03*
X792000Y702000D02*
D03*
X420000Y847000D02*
D03*
X421000Y1021000D02*
D03*
X974000Y494000D02*
D03*
X1009000Y553000D02*
D03*
X767000Y581000D02*
D03*
X1179501Y498332D02*
D03*
D70*
X1026000Y1057000D02*
D03*
X1131000Y996000D02*
D03*
X1181000D02*
D03*
X1266000Y676000D02*
D03*
X1221000D02*
D03*
X905000Y713000D02*
D03*
X952000D02*
D03*
X975042Y1006042D02*
D03*
X1117000Y879000D02*
D03*
X1045189Y848000D02*
D03*
X1067000Y903000D02*
D03*
X999000Y714213D02*
D03*
X1109300Y1034071D02*
D03*
X1077000Y1006000D02*
D03*
X1176000Y899000D02*
D03*
X1627000Y1270000D02*
D03*
X973875Y843189D02*
D03*
X1008000Y877000D02*
D03*
X1184000Y1054029D02*
D03*
X1426000Y1428000D02*
D03*
X1239000Y1340000D02*
D03*
X1423000Y1586000D02*
D03*
X1476000Y1426000D02*
D03*
X1677000Y1271000D02*
D03*
X1327000Y673000D02*
D03*
X1001000Y1301000D02*
D03*
X663000Y1149000D02*
D03*
X940346Y794000D02*
D03*
X1081000Y636000D02*
D03*
X1139000Y704000D02*
D03*
M02*
