G04*
G04 #@! TF.GenerationSoftware,Altium Limited,Altium Designer,24.8.2 (39)*
G04*
G04 Layer_Color=255*
%FSLAX26Y26*%
%MOIN*%
G70*
G04*
G04 #@! TF.SameCoordinates,943EF9C2-7E4B-4E9F-8D88-1E315B4C2DD2*
G04*
G04*
G04 #@! TF.FilePolarity,Positive*
G04*
G01*
G75*
%ADD18C,0.060000*%
%ADD19R,0.070000X0.070000*%
%ADD20R,0.026475X0.026306*%
%ADD21R,0.029134X0.109843*%
%ADD22R,0.039848X0.041682*%
%ADD23R,0.041816X0.045532*%
%ADD24R,0.039848X0.045619*%
%ADD25R,0.031496X0.031496*%
%ADD26R,0.045619X0.039848*%
%ADD27R,0.047575X0.039848*%
%ADD28R,0.041816X0.044687*%
%ADD29R,0.074803X0.059055*%
%ADD30R,0.053150X0.015748*%
G04:AMPARAMS|DCode=31|XSize=15.748mil|YSize=25.591mil|CornerRadius=1.968mil|HoleSize=0mil|Usage=FLASHONLY|Rotation=90.000|XOffset=0mil|YOffset=0mil|HoleType=Round|Shape=RoundedRectangle|*
%AMROUNDEDRECTD31*
21,1,0.015748,0.021654,0,0,90.0*
21,1,0.011811,0.025591,0,0,90.0*
1,1,0.003937,0.010827,0.005906*
1,1,0.003937,0.010827,-0.005906*
1,1,0.003937,-0.010827,-0.005906*
1,1,0.003937,-0.010827,0.005906*
%
%ADD31ROUNDEDRECTD31*%
%ADD32R,0.031496X0.023622*%
%ADD33R,0.041662X0.051419*%
%ADD34R,0.039848X0.049533*%
%ADD35R,0.027559X0.033465*%
%ADD36R,0.027559X0.059055*%
%ADD37R,0.039370X0.031496*%
%ADD38R,0.102362X0.074803*%
%ADD39R,0.029528X0.033465*%
%ADD40O,0.009842X0.061024*%
%ADD41O,0.061024X0.009842*%
%ADD42R,0.049459X0.041662*%
%ADD43R,0.074803X0.051181*%
%ADD44R,0.020472X0.022047*%
%ADD45R,0.028163X0.026475*%
%ADD46R,0.026306X0.026475*%
%ADD47R,0.025591X0.013780*%
%ADD48R,0.025984X0.016142*%
%ADD49R,0.026475X0.028163*%
%ADD50O,0.009842X0.027559*%
%ADD51O,0.027559X0.009842*%
%ADD52R,0.102362X0.102362*%
%ADD54R,0.022638X0.013780*%
%ADD55R,0.013780X0.022638*%
%ADD56R,0.059055X0.059055*%
%ADD57C,0.059055*%
%ADD59C,0.057087*%
%ADD60C,0.062992*%
%ADD61R,0.062992X0.062992*%
%ADD62C,0.035433*%
%ADD68C,0.118110*%
D18*
X1299000Y333000D02*
D03*
D19*
X1204000Y428000D02*
D03*
X1394000D02*
D03*
X1204000Y238000D02*
D03*
X1394000D02*
D03*
D20*
X790000Y656770D02*
D03*
Y617230D02*
D03*
X638000Y430230D02*
D03*
Y469770D02*
D03*
D21*
X1427000Y1347000D02*
D03*
Y1507236D02*
D03*
X1477000Y1347000D02*
D03*
Y1507236D02*
D03*
X1527000Y1347000D02*
D03*
Y1507236D02*
D03*
X1577000Y1347000D02*
D03*
Y1507236D02*
D03*
X1627000Y1347000D02*
D03*
Y1507236D02*
D03*
X1677000Y1347000D02*
D03*
Y1507236D02*
D03*
X1727000Y1347000D02*
D03*
Y1507236D02*
D03*
D22*
X1303000Y1380516D02*
D03*
Y1311484D02*
D03*
X1326000Y716484D02*
D03*
Y785516D02*
D03*
X646000Y765516D02*
D03*
Y696484D02*
D03*
X726000Y1076484D02*
D03*
Y1145516D02*
D03*
X794000Y1075484D02*
D03*
Y1144516D02*
D03*
X1224000Y786000D02*
D03*
Y716968D02*
D03*
D23*
X1586000Y557502D02*
D03*
Y624498D02*
D03*
X1234000Y1162502D02*
D03*
Y1229498D02*
D03*
X751000Y893502D02*
D03*
Y960498D02*
D03*
D24*
X1521000Y559452D02*
D03*
Y624548D02*
D03*
X1458000Y730452D02*
D03*
Y795548D02*
D03*
X1477000Y1143000D02*
D03*
Y1077905D02*
D03*
X1416000Y1142547D02*
D03*
Y1077453D02*
D03*
X1294000Y1142547D02*
D03*
Y1077453D02*
D03*
X1537000Y1143000D02*
D03*
Y1077905D02*
D03*
X1353000Y1142547D02*
D03*
Y1077453D02*
D03*
X577000Y763000D02*
D03*
Y697905D02*
D03*
D25*
X1578528Y686000D02*
D03*
X1519472D02*
D03*
X1098472Y1162000D02*
D03*
X1157528D02*
D03*
D26*
X1598547Y735000D02*
D03*
X1533453D02*
D03*
X1173547Y1260000D02*
D03*
X1108453D02*
D03*
X480452Y1021000D02*
D03*
X545548D02*
D03*
X480452Y848000D02*
D03*
X545548D02*
D03*
X1114954Y591332D02*
D03*
X1180049D02*
D03*
X1114954Y541332D02*
D03*
X1180049D02*
D03*
D27*
X1534000Y798000D02*
D03*
X1597139D02*
D03*
D28*
X1390000Y731898D02*
D03*
Y796102D02*
D03*
X1306000Y837898D02*
D03*
Y902102D02*
D03*
D29*
X1742914Y1057189D02*
D03*
Y978449D02*
D03*
D30*
X1636614Y1069000D02*
D03*
Y1043409D02*
D03*
Y1017819D02*
D03*
Y992228D02*
D03*
Y966638D02*
D03*
D31*
X1457354Y844409D02*
D03*
Y895591D02*
D03*
X1376646Y844409D02*
D03*
Y870000D02*
D03*
Y895591D02*
D03*
D32*
X1378000Y927409D02*
D03*
Y978591D02*
D03*
D33*
X1500000Y851446D02*
D03*
Y912554D02*
D03*
D34*
X1554000Y913590D02*
D03*
Y852410D02*
D03*
X802000Y822590D02*
D03*
Y761410D02*
D03*
X856000Y884590D02*
D03*
Y823410D02*
D03*
X1080000Y1366410D02*
D03*
Y1427590D02*
D03*
X795000Y1363410D02*
D03*
Y1424590D02*
D03*
D35*
X1521622Y1588000D02*
D03*
X1474378D02*
D03*
D36*
X642472Y252898D02*
D03*
X701528D02*
D03*
X524362D02*
D03*
D37*
X469244Y221992D02*
D03*
X756646D02*
D03*
X469244Y146008D02*
D03*
X756646D02*
D03*
D38*
X645000Y850354D02*
D03*
Y1019646D02*
D03*
X729000Y350354D02*
D03*
Y519646D02*
D03*
D39*
X814409Y953000D02*
D03*
X865591D02*
D03*
D40*
X968732Y1108465D02*
D03*
X988417D02*
D03*
X1008102D02*
D03*
X1027787D02*
D03*
X1047472D02*
D03*
X1067157D02*
D03*
X1086842D02*
D03*
X1106527D02*
D03*
X1126213D02*
D03*
X1145898D02*
D03*
X1165583D02*
D03*
X1185268D02*
D03*
Y791535D02*
D03*
X1165583D02*
D03*
X1145898D02*
D03*
X1126213D02*
D03*
X1106527D02*
D03*
X1086842D02*
D03*
X1067157D02*
D03*
X1047472D02*
D03*
X1027787D02*
D03*
X1008102D02*
D03*
X988417D02*
D03*
X968732D02*
D03*
D41*
X1235465Y1058268D02*
D03*
Y1038583D02*
D03*
Y1018898D02*
D03*
Y999213D02*
D03*
Y979528D02*
D03*
Y959843D02*
D03*
Y940158D02*
D03*
Y920472D02*
D03*
Y900787D02*
D03*
Y881102D02*
D03*
Y861417D02*
D03*
Y841732D02*
D03*
X918535D02*
D03*
Y861417D02*
D03*
Y881102D02*
D03*
Y900787D02*
D03*
Y920472D02*
D03*
Y940158D02*
D03*
Y959843D02*
D03*
Y979528D02*
D03*
Y999213D02*
D03*
Y1018898D02*
D03*
Y1038583D02*
D03*
Y1058268D02*
D03*
D42*
X1010535Y1171000D02*
D03*
X947465D02*
D03*
D43*
X999992Y1250732D02*
D03*
Y1467268D02*
D03*
X874008D02*
D03*
Y1250732D02*
D03*
D44*
X1007000Y599646D02*
D03*
Y630354D02*
D03*
D45*
X875646Y238964D02*
D03*
X837964D02*
D03*
X993159Y335000D02*
D03*
X1030841D02*
D03*
X973318Y386000D02*
D03*
X1011000D02*
D03*
D46*
X834230Y333000D02*
D03*
X873770D02*
D03*
X1005770Y457000D02*
D03*
X966230D02*
D03*
D47*
X834000Y449268D02*
D03*
Y482732D02*
D03*
X912000Y428268D02*
D03*
Y461732D02*
D03*
D48*
X873000Y481882D02*
D03*
Y442118D02*
D03*
D49*
X543000Y386159D02*
D03*
Y423841D02*
D03*
Y513682D02*
D03*
Y476000D02*
D03*
X702000Y617159D02*
D03*
Y654841D02*
D03*
D50*
X939535Y658465D02*
D03*
X919850D02*
D03*
X900165D02*
D03*
X880480D02*
D03*
X860795D02*
D03*
Y512795D02*
D03*
X880480D02*
D03*
X900165D02*
D03*
X919850D02*
D03*
X939535D02*
D03*
D51*
X827331Y625000D02*
D03*
Y605315D02*
D03*
Y585630D02*
D03*
Y565945D02*
D03*
Y546260D02*
D03*
X973000D02*
D03*
Y565945D02*
D03*
Y585630D02*
D03*
Y605315D02*
D03*
Y625000D02*
D03*
D52*
X900165Y585630D02*
D03*
D54*
X1080465Y730000D02*
D03*
Y710315D02*
D03*
Y690630D02*
D03*
Y670945D02*
D03*
X1172000D02*
D03*
Y690630D02*
D03*
Y710315D02*
D03*
Y730000D02*
D03*
D55*
X1106547Y664547D02*
D03*
X1126232D02*
D03*
X1145917D02*
D03*
Y736398D02*
D03*
X1126232D02*
D03*
X1106547D02*
D03*
D56*
X459953Y594417D02*
D03*
D57*
Y771583D02*
D03*
X204047D02*
D03*
Y594417D02*
D03*
D59*
X1636614Y919394D02*
D03*
Y1116244D02*
D03*
D60*
X375000Y192000D02*
D03*
D61*
X275000D02*
D03*
D62*
X553890Y184000D02*
D03*
X672000D02*
D03*
D68*
X100000Y100000D02*
D03*
Y1700000D02*
D03*
X1700000Y100000D02*
D03*
Y1700000D02*
D03*
M02*
