G04*
G04 #@! TF.GenerationSoftware,Altium Limited,Altium Designer,24.8.2 (39)*
G04*
G04 Layer_Physical_Order=3*
G04 Layer_Color=16440176*
%FSLAX26Y26*%
%MOIN*%
G70*
G04*
G04 #@! TF.SameCoordinates,943EF9C2-7E4B-4E9F-8D88-1E315B4C2DD2*
G04*
G04*
G04 #@! TF.FilePolarity,Positive*
G04*
G01*
G75*
%ADD56R,0.059055X0.059055*%
%ADD57C,0.059055*%
%ADD59C,0.057087*%
%ADD60C,0.062992*%
%ADD61R,0.062992X0.062992*%
%ADD62C,0.035433*%
%ADD68C,0.118110*%
%ADD69C,0.027559*%
%ADD70C,0.023622*%
G36*
X1800000Y1000D02*
X1799586Y0D01*
X0D01*
Y1800000D01*
X1800000D01*
Y1000D01*
D02*
G37*
%LPC*%
G36*
X1706801Y1769055D02*
X1705000D01*
Y1705000D01*
X1769055D01*
Y1706801D01*
X1766401Y1720143D01*
X1761196Y1732710D01*
X1753639Y1744020D01*
X1744020Y1753639D01*
X1732710Y1761196D01*
X1720143Y1766401D01*
X1706801Y1769055D01*
D02*
G37*
G36*
X1695000D02*
X1693199D01*
X1679857Y1766401D01*
X1667290Y1761196D01*
X1655980Y1753639D01*
X1646361Y1744020D01*
X1638804Y1732710D01*
X1633599Y1720143D01*
X1630945Y1706801D01*
Y1705000D01*
X1695000D01*
Y1769055D01*
D02*
G37*
G36*
X106801D02*
X105000D01*
Y1705000D01*
X169055D01*
Y1706801D01*
X166401Y1720143D01*
X161196Y1732710D01*
X153639Y1744020D01*
X144020Y1753639D01*
X132710Y1761196D01*
X120143Y1766401D01*
X106801Y1769055D01*
D02*
G37*
G36*
X95000D02*
X93199D01*
X79857Y1766401D01*
X67290Y1761196D01*
X55980Y1753639D01*
X46361Y1744020D01*
X38804Y1732710D01*
X33599Y1720143D01*
X30945Y1706801D01*
Y1705000D01*
X95000D01*
Y1769055D01*
D02*
G37*
G36*
X1769055Y1695000D02*
X1705000D01*
Y1630945D01*
X1706801D01*
X1720143Y1633599D01*
X1732710Y1638804D01*
X1744020Y1646361D01*
X1753639Y1655980D01*
X1761196Y1667290D01*
X1766401Y1679857D01*
X1769055Y1693199D01*
Y1695000D01*
D02*
G37*
G36*
X1695000D02*
X1630945D01*
Y1693199D01*
X1633599Y1679857D01*
X1638804Y1667290D01*
X1646361Y1655980D01*
X1655980Y1646361D01*
X1667290Y1638804D01*
X1679857Y1633599D01*
X1693199Y1630945D01*
X1695000D01*
Y1695000D01*
D02*
G37*
G36*
X169055D02*
X105000D01*
Y1630945D01*
X106801D01*
X120143Y1633599D01*
X132710Y1638804D01*
X144020Y1646361D01*
X153639Y1655980D01*
X161196Y1667290D01*
X166401Y1679857D01*
X169055Y1693199D01*
Y1695000D01*
D02*
G37*
G36*
X95000D02*
X30945D01*
Y1693199D01*
X33599Y1679857D01*
X38804Y1667290D01*
X46361Y1655980D01*
X55980Y1646361D01*
X67290Y1638804D01*
X79857Y1633599D01*
X93199Y1630945D01*
X95000D01*
Y1695000D01*
D02*
G37*
G36*
X1682736Y1610780D02*
X1675264D01*
X1668362Y1607920D01*
X1663080Y1602638D01*
X1660220Y1595736D01*
Y1588264D01*
X1663080Y1581362D01*
X1668362Y1576080D01*
X1675264Y1573220D01*
X1682736D01*
X1689638Y1576080D01*
X1694920Y1581362D01*
X1697780Y1588264D01*
Y1595736D01*
X1694920Y1602638D01*
X1689638Y1607920D01*
X1682736Y1610780D01*
D02*
G37*
G36*
X1426344Y1602811D02*
X1419656D01*
X1413477Y1600252D01*
X1408748Y1595523D01*
X1406189Y1589344D01*
Y1582656D01*
X1408748Y1576477D01*
X1413477Y1571748D01*
X1419656Y1569189D01*
X1426344D01*
X1432523Y1571748D01*
X1437252Y1576477D01*
X1439811Y1582656D01*
Y1589344D01*
X1437252Y1595523D01*
X1432523Y1600252D01*
X1426344Y1602811D01*
D02*
G37*
G36*
X1429344Y1444811D02*
X1422656D01*
X1416477Y1442252D01*
X1411748Y1437523D01*
X1409189Y1431344D01*
Y1424656D01*
X1411748Y1418477D01*
X1416477Y1413748D01*
X1422656Y1411189D01*
X1429344D01*
X1435523Y1413748D01*
X1440252Y1418477D01*
X1442811Y1424656D01*
Y1431344D01*
X1440252Y1437523D01*
X1435523Y1442252D01*
X1429344Y1444811D01*
D02*
G37*
G36*
X1479344Y1442811D02*
X1472656D01*
X1466477Y1440252D01*
X1461748Y1435523D01*
X1459189Y1429344D01*
Y1422656D01*
X1461748Y1416477D01*
X1466477Y1411748D01*
X1472656Y1409189D01*
X1479344D01*
X1485523Y1411748D01*
X1490252Y1416477D01*
X1492811Y1422656D01*
Y1429344D01*
X1490252Y1435523D01*
X1485523Y1440252D01*
X1479344Y1442811D01*
D02*
G37*
G36*
X1242344Y1356811D02*
X1235656D01*
X1229477Y1354252D01*
X1224748Y1349523D01*
X1222189Y1343344D01*
Y1336656D01*
X1224748Y1330477D01*
X1229477Y1325748D01*
X1235656Y1323189D01*
X1242344D01*
X1248523Y1325748D01*
X1253252Y1330477D01*
X1255811Y1336656D01*
Y1343344D01*
X1253252Y1349523D01*
X1248523Y1354252D01*
X1242344Y1356811D01*
D02*
G37*
G36*
X1004344Y1317811D02*
X997656D01*
X991477Y1315252D01*
X986748Y1310523D01*
X984189Y1304344D01*
Y1297656D01*
X986748Y1291477D01*
X991477Y1286748D01*
X997656Y1284189D01*
X1004344D01*
X1010523Y1286748D01*
X1015252Y1291477D01*
X1017811Y1297656D01*
Y1304344D01*
X1015252Y1310523D01*
X1010523Y1315252D01*
X1004344Y1317811D01*
D02*
G37*
G36*
X1680344Y1287811D02*
X1673656D01*
X1667477Y1285252D01*
X1662748Y1280523D01*
X1660189Y1274344D01*
Y1267656D01*
X1662748Y1261477D01*
X1667477Y1256748D01*
X1673656Y1254189D01*
X1680344D01*
X1686523Y1256748D01*
X1691252Y1261477D01*
X1693811Y1267656D01*
Y1274344D01*
X1691252Y1280523D01*
X1686523Y1285252D01*
X1680344Y1287811D01*
D02*
G37*
G36*
X1630344Y1286811D02*
X1623656D01*
X1617477Y1284252D01*
X1612748Y1279523D01*
X1610189Y1273344D01*
Y1266656D01*
X1612748Y1260477D01*
X1617477Y1255748D01*
X1623656Y1253189D01*
X1630344D01*
X1636523Y1255748D01*
X1641252Y1260477D01*
X1643811Y1266656D01*
Y1273344D01*
X1641252Y1279523D01*
X1636523Y1284252D01*
X1630344Y1286811D01*
D02*
G37*
G36*
X941736Y1249780D02*
X934264D01*
X927362Y1246920D01*
X922080Y1241638D01*
X919221Y1234736D01*
Y1227264D01*
X922080Y1220362D01*
X927362Y1215080D01*
X934264Y1212220D01*
X941736D01*
X948638Y1215080D01*
X953920Y1220362D01*
X956779Y1227264D01*
Y1234736D01*
X953920Y1241638D01*
X948638Y1246920D01*
X941736Y1249780D01*
D02*
G37*
G36*
X1611550Y1186965D02*
X1604079D01*
X1597177Y1184106D01*
X1591894Y1178823D01*
X1589035Y1171921D01*
Y1164450D01*
X1591894Y1157548D01*
X1597177Y1152265D01*
X1604079Y1149406D01*
X1611550D01*
X1618452Y1152265D01*
X1623735Y1157548D01*
X1626594Y1164450D01*
Y1171921D01*
X1623735Y1178823D01*
X1618452Y1184106D01*
X1611550Y1186965D01*
D02*
G37*
G36*
X1756693Y1177852D02*
X1729134D01*
X1720624Y1176160D01*
X1713409Y1171339D01*
X1708589Y1164124D01*
X1706896Y1155614D01*
X1708589Y1147104D01*
X1713409Y1139889D01*
X1720624Y1135069D01*
X1729134Y1133376D01*
X1756693D01*
X1765203Y1135069D01*
X1772418Y1139889D01*
X1777239Y1147104D01*
X1778931Y1155614D01*
X1777239Y1164124D01*
X1772418Y1171339D01*
X1765203Y1176160D01*
X1756693Y1177852D01*
D02*
G37*
G36*
X666344Y1165811D02*
X659656D01*
X653477Y1163252D01*
X648748Y1158523D01*
X646189Y1152344D01*
Y1145656D01*
X648748Y1139477D01*
X653477Y1134748D01*
X659656Y1132189D01*
X666344D01*
X672523Y1134748D01*
X677252Y1139477D01*
X679811Y1145656D01*
Y1152344D01*
X677252Y1158523D01*
X672523Y1163252D01*
X666344Y1165811D01*
D02*
G37*
G36*
X1641031Y1149787D02*
X1632198D01*
X1623667Y1147501D01*
X1616018Y1143085D01*
X1609773Y1136840D01*
X1605357Y1129191D01*
X1603071Y1120660D01*
Y1111828D01*
X1605357Y1103297D01*
X1609773Y1095648D01*
X1616018Y1089403D01*
X1623667Y1084987D01*
X1632198Y1082701D01*
X1641031D01*
X1649562Y1084987D01*
X1657210Y1089403D01*
X1663456Y1095648D01*
X1667872Y1103297D01*
X1670158Y1111828D01*
Y1120660D01*
X1667872Y1129191D01*
X1663456Y1136840D01*
X1657210Y1143085D01*
X1649562Y1147501D01*
X1641031Y1149787D01*
D02*
G37*
G36*
X1029344Y1073811D02*
X1022656D01*
X1016477Y1071252D01*
X1011748Y1066523D01*
X1009189Y1060344D01*
Y1053656D01*
X1011748Y1047477D01*
X1016477Y1042748D01*
X1022656Y1040189D01*
X1029344D01*
X1035523Y1042748D01*
X1040252Y1047477D01*
X1042811Y1053656D01*
Y1060344D01*
X1040252Y1066523D01*
X1035523Y1071252D01*
X1029344Y1073811D01*
D02*
G37*
G36*
X1187344Y1070840D02*
X1180656D01*
X1174477Y1068281D01*
X1169748Y1063552D01*
X1167189Y1057373D01*
Y1050685D01*
X1169748Y1044507D01*
X1174477Y1039778D01*
X1180656Y1037218D01*
X1187344D01*
X1193523Y1039778D01*
X1198252Y1044507D01*
X1200811Y1050685D01*
Y1057373D01*
X1198252Y1063552D01*
X1193523Y1068281D01*
X1187344Y1070840D01*
D02*
G37*
G36*
X1112644Y1050882D02*
X1105956D01*
X1099777Y1048322D01*
X1095048Y1043593D01*
X1092489Y1037415D01*
Y1030727D01*
X1095048Y1024548D01*
X1099777Y1019819D01*
X1105956Y1017260D01*
X1112644D01*
X1118822Y1019819D01*
X1123551Y1024548D01*
X1126111Y1030727D01*
Y1037415D01*
X1123551Y1043593D01*
X1118822Y1048322D01*
X1112644Y1050882D01*
D02*
G37*
G36*
X978386Y1022853D02*
X971698D01*
X965519Y1020293D01*
X960790Y1015564D01*
X958231Y1009386D01*
Y1002698D01*
X960790Y996519D01*
X965519Y991790D01*
X971698Y989231D01*
X978386D01*
X984564Y991790D01*
X989293Y996519D01*
X991853Y1002698D01*
Y1009386D01*
X989293Y1015564D01*
X984564Y1020293D01*
X978386Y1022853D01*
D02*
G37*
G36*
X1080344Y1022811D02*
X1073656D01*
X1067477Y1020252D01*
X1062748Y1015523D01*
X1060189Y1009344D01*
Y1002656D01*
X1062748Y996477D01*
X1067477Y991748D01*
X1073656Y989189D01*
X1080344D01*
X1086523Y991748D01*
X1091252Y996477D01*
X1093811Y1002656D01*
Y1009344D01*
X1091252Y1015523D01*
X1086523Y1020252D01*
X1080344Y1022811D01*
D02*
G37*
G36*
X1184344Y1012811D02*
X1177656D01*
X1171477Y1010252D01*
X1166748Y1005523D01*
X1164189Y999344D01*
Y992656D01*
X1166748Y986477D01*
X1171477Y981748D01*
X1177656Y979189D01*
X1184344D01*
X1190523Y981748D01*
X1195252Y986477D01*
X1197811Y992656D01*
Y999344D01*
X1195252Y1005523D01*
X1190523Y1010252D01*
X1184344Y1012811D01*
D02*
G37*
G36*
X1134344D02*
X1127656D01*
X1121477Y1010252D01*
X1116748Y1005523D01*
X1114189Y999344D01*
Y992656D01*
X1116748Y986477D01*
X1121477Y981748D01*
X1127656Y979189D01*
X1134344D01*
X1140523Y981748D01*
X1145252Y986477D01*
X1147811Y992656D01*
Y999344D01*
X1145252Y1005523D01*
X1140523Y1010252D01*
X1134344Y1012811D01*
D02*
G37*
G36*
X1341736Y991000D02*
X1334264D01*
X1327362Y988141D01*
X1322080Y982858D01*
X1319220Y975956D01*
Y968485D01*
X1322080Y961583D01*
X1327362Y956300D01*
X1334264Y953441D01*
X1341736D01*
X1348638Y956300D01*
X1353920Y961583D01*
X1356780Y968485D01*
Y975956D01*
X1353920Y982858D01*
X1348638Y988141D01*
X1341736Y991000D01*
D02*
G37*
G36*
X1073736Y967779D02*
X1066264D01*
X1059362Y964920D01*
X1054080Y959638D01*
X1051220Y952736D01*
Y945264D01*
X1054080Y938362D01*
X1059362Y933080D01*
X1066264Y930221D01*
X1073736D01*
X1080638Y933080D01*
X1085920Y938362D01*
X1088780Y945264D01*
Y952736D01*
X1085920Y959638D01*
X1080638Y964920D01*
X1073736Y967779D01*
D02*
G37*
G36*
X1070344Y919811D02*
X1063656D01*
X1057477Y917252D01*
X1052748Y912523D01*
X1050189Y906344D01*
Y899656D01*
X1052748Y893477D01*
X1057477Y888748D01*
X1063656Y886189D01*
X1070344D01*
X1076523Y888748D01*
X1081252Y893477D01*
X1083811Y899656D01*
Y906344D01*
X1081252Y912523D01*
X1076523Y917252D01*
X1070344Y919811D01*
D02*
G37*
G36*
X1641031Y952937D02*
X1632198D01*
X1623667Y950651D01*
X1616018Y946235D01*
X1609773Y939990D01*
X1605357Y932341D01*
X1603071Y923810D01*
Y914978D01*
X1605357Y906447D01*
X1609773Y898798D01*
X1616018Y892552D01*
X1623667Y888136D01*
X1632198Y885850D01*
X1641031D01*
X1649562Y888136D01*
X1657210Y892552D01*
X1663456Y898798D01*
X1667872Y906447D01*
X1670158Y914978D01*
Y923810D01*
X1667872Y932341D01*
X1663456Y939990D01*
X1657210Y946235D01*
X1649562Y950651D01*
X1641031Y952937D01*
D02*
G37*
G36*
X1179344Y915811D02*
X1172656D01*
X1166477Y913252D01*
X1161748Y908523D01*
X1159189Y902344D01*
Y895656D01*
X1161748Y889477D01*
X1166477Y884748D01*
X1172656Y882189D01*
X1179344D01*
X1185523Y884748D01*
X1190252Y889477D01*
X1192811Y895656D01*
Y902344D01*
X1190252Y908523D01*
X1185523Y913252D01*
X1179344Y915811D01*
D02*
G37*
G36*
X1420000Y893668D02*
Y875000D01*
X1438668D01*
X1435159Y883470D01*
X1428470Y890159D01*
X1420000Y893668D01*
D02*
G37*
G36*
X1410000D02*
X1401530Y890159D01*
X1394841Y883470D01*
X1391332Y875000D01*
X1410000D01*
Y893668D01*
D02*
G37*
G36*
X1120344Y895811D02*
X1113656D01*
X1107477Y893252D01*
X1102748Y888523D01*
X1100189Y882344D01*
Y875656D01*
X1102748Y869477D01*
X1107477Y864748D01*
X1113656Y862189D01*
X1120344D01*
X1126523Y864748D01*
X1131252Y869477D01*
X1133811Y875656D01*
Y882344D01*
X1131252Y888523D01*
X1126523Y893252D01*
X1120344Y895811D01*
D02*
G37*
G36*
X1011344Y893811D02*
X1004656D01*
X998477Y891252D01*
X993748Y886523D01*
X991189Y880344D01*
Y873656D01*
X993748Y867477D01*
X998477Y862748D01*
X1004656Y860189D01*
X1011344D01*
X1017523Y862748D01*
X1022252Y867477D01*
X1024811Y873656D01*
Y880344D01*
X1022252Y886523D01*
X1017523Y891252D01*
X1011344Y893811D01*
D02*
G37*
G36*
X1756693Y902262D02*
X1729134D01*
X1720624Y900569D01*
X1713409Y895749D01*
X1708589Y888534D01*
X1706896Y880024D01*
X1708589Y871513D01*
X1713409Y864299D01*
X1720624Y859478D01*
X1729134Y857785D01*
X1756693D01*
X1765203Y859478D01*
X1772418Y864299D01*
X1777239Y871513D01*
X1778931Y880024D01*
X1777239Y888534D01*
X1772418Y895749D01*
X1765203Y900569D01*
X1756693Y902262D01*
D02*
G37*
G36*
X1438668Y865000D02*
X1420000D01*
Y846332D01*
X1428470Y849841D01*
X1435159Y856530D01*
X1438668Y865000D01*
D02*
G37*
G36*
X1410000D02*
X1391332D01*
X1394841Y856530D01*
X1401530Y849841D01*
X1410000Y846332D01*
Y865000D01*
D02*
G37*
G36*
X1048533Y864811D02*
X1041845D01*
X1035666Y862252D01*
X1030937Y857523D01*
X1028378Y851344D01*
Y844656D01*
X1030937Y838477D01*
X1035666Y833748D01*
X1041845Y831189D01*
X1048533D01*
X1054712Y833748D01*
X1059441Y838477D01*
X1062000Y844656D01*
Y851344D01*
X1059441Y857523D01*
X1054712Y862252D01*
X1048533Y864811D01*
D02*
G37*
G36*
X977219Y860000D02*
X970531D01*
X964352Y857440D01*
X959623Y852711D01*
X957064Y846533D01*
Y839845D01*
X959623Y833666D01*
X964352Y828937D01*
X970531Y826378D01*
X977219D01*
X983398Y828937D01*
X988126Y833666D01*
X990686Y839845D01*
Y846533D01*
X988126Y852711D01*
X983398Y857440D01*
X977219Y860000D01*
D02*
G37*
G36*
X943690Y810811D02*
X937003D01*
X930824Y808252D01*
X926095Y803523D01*
X923535Y797344D01*
Y790656D01*
X926095Y784477D01*
X930824Y779748D01*
X937003Y777189D01*
X943690D01*
X949869Y779748D01*
X954598Y784477D01*
X957157Y790656D01*
Y797344D01*
X954598Y803523D01*
X949869Y808252D01*
X943690Y810811D01*
D02*
G37*
G36*
X209251Y811110D02*
X209047D01*
Y776583D01*
X243575D01*
Y776787D01*
X240881Y786840D01*
X235677Y795853D01*
X228318Y803212D01*
X219304Y808416D01*
X209251Y811110D01*
D02*
G37*
G36*
X199047D02*
X198844D01*
X188790Y808416D01*
X179777Y803212D01*
X172417Y795853D01*
X167214Y786840D01*
X164520Y776787D01*
Y776583D01*
X199047D01*
Y811110D01*
D02*
G37*
G36*
X464498Y806110D02*
X455407D01*
X446626Y803757D01*
X438752Y799211D01*
X432324Y792783D01*
X427778Y784910D01*
X425425Y776128D01*
Y767037D01*
X427778Y758255D01*
X432324Y750382D01*
X438752Y743954D01*
X446626Y739408D01*
X455407Y737055D01*
X464498D01*
X473280Y739408D01*
X481153Y743954D01*
X487582Y750382D01*
X492127Y758255D01*
X494480Y767037D01*
Y776128D01*
X492127Y784910D01*
X487582Y792783D01*
X481153Y799211D01*
X473280Y803757D01*
X464498Y806110D01*
D02*
G37*
G36*
X243575Y766583D02*
X209047D01*
Y732055D01*
X209251D01*
X219304Y734749D01*
X228318Y739953D01*
X235677Y747312D01*
X240881Y756326D01*
X243575Y766379D01*
Y766583D01*
D02*
G37*
G36*
X199047D02*
X164520D01*
Y766379D01*
X167214Y756326D01*
X172417Y747312D01*
X179777Y739953D01*
X188790Y734749D01*
X198844Y732055D01*
X199047D01*
Y766583D01*
D02*
G37*
G36*
X1002344Y731024D02*
X995656D01*
X989477Y728464D01*
X984748Y723735D01*
X982189Y717557D01*
Y710869D01*
X984748Y704690D01*
X989477Y699961D01*
X995656Y697402D01*
X1002344D01*
X1008523Y699961D01*
X1013252Y704690D01*
X1015811Y710869D01*
Y717557D01*
X1013252Y723735D01*
X1008523Y728464D01*
X1002344Y731024D01*
D02*
G37*
G36*
X955344Y729811D02*
X948656D01*
X942477Y727252D01*
X937748Y722523D01*
X935189Y716344D01*
Y709656D01*
X937748Y703477D01*
X942477Y698748D01*
X948656Y696189D01*
X955344D01*
X961523Y698748D01*
X966252Y703477D01*
X968811Y709656D01*
Y716344D01*
X966252Y722523D01*
X961523Y727252D01*
X955344Y729811D01*
D02*
G37*
G36*
X908344D02*
X901656D01*
X895477Y727252D01*
X890748Y722523D01*
X888189Y716344D01*
Y709656D01*
X890748Y703477D01*
X895477Y698748D01*
X901656Y696189D01*
X908344D01*
X914523Y698748D01*
X919252Y703477D01*
X921811Y709656D01*
Y716344D01*
X919252Y722523D01*
X914523Y727252D01*
X908344Y729811D01*
D02*
G37*
G36*
X1142344Y720811D02*
X1135656D01*
X1129477Y718252D01*
X1124748Y713523D01*
X1122189Y707344D01*
Y700656D01*
X1124748Y694477D01*
X1129477Y689748D01*
X1135656Y687189D01*
X1142344D01*
X1148523Y689748D01*
X1153252Y694477D01*
X1155811Y700656D01*
Y707344D01*
X1153252Y713523D01*
X1148523Y718252D01*
X1142344Y720811D01*
D02*
G37*
G36*
X1269344Y692811D02*
X1262656D01*
X1256477Y690252D01*
X1251748Y685523D01*
X1249189Y679344D01*
Y672656D01*
X1251748Y666477D01*
X1256477Y661748D01*
X1262656Y659189D01*
X1269344D01*
X1275523Y661748D01*
X1280252Y666477D01*
X1282811Y672656D01*
Y679344D01*
X1280252Y685523D01*
X1275523Y690252D01*
X1269344Y692811D01*
D02*
G37*
G36*
X1224344D02*
X1217656D01*
X1211477Y690252D01*
X1206748Y685523D01*
X1204189Y679344D01*
Y672656D01*
X1206748Y666477D01*
X1211477Y661748D01*
X1217656Y659189D01*
X1224344D01*
X1230523Y661748D01*
X1235252Y666477D01*
X1237811Y672656D01*
Y679344D01*
X1235252Y685523D01*
X1230523Y690252D01*
X1224344Y692811D01*
D02*
G37*
G36*
X1330344Y689811D02*
X1323656D01*
X1317477Y687252D01*
X1312748Y682523D01*
X1310189Y676344D01*
Y669656D01*
X1312748Y663477D01*
X1317477Y658748D01*
X1323656Y656189D01*
X1330344D01*
X1336523Y658748D01*
X1341252Y663477D01*
X1343811Y669656D01*
Y676344D01*
X1341252Y682523D01*
X1336523Y687252D01*
X1330344Y689811D01*
D02*
G37*
G36*
X1084344Y652811D02*
X1077656D01*
X1071477Y650252D01*
X1066748Y645523D01*
X1064189Y639344D01*
Y632656D01*
X1066748Y626477D01*
X1071477Y621748D01*
X1077656Y619189D01*
X1084344D01*
X1090523Y621748D01*
X1095252Y626477D01*
X1097811Y632656D01*
Y639344D01*
X1095252Y645523D01*
X1090523Y650252D01*
X1084344Y652811D01*
D02*
G37*
G36*
X1204736Y655779D02*
X1197264D01*
X1190362Y652920D01*
X1185080Y647638D01*
X1182220Y640736D01*
Y633264D01*
X1185080Y626362D01*
X1190362Y621080D01*
X1197264Y618221D01*
X1204736D01*
X1211638Y621080D01*
X1216920Y626362D01*
X1219780Y633264D01*
Y640736D01*
X1216920Y647638D01*
X1211638Y652920D01*
X1204736Y655779D01*
D02*
G37*
G36*
X209251Y633945D02*
X209047D01*
Y599417D01*
X243575D01*
Y599621D01*
X240881Y609674D01*
X235677Y618688D01*
X228318Y626047D01*
X219304Y631251D01*
X209251Y633945D01*
D02*
G37*
G36*
X199047D02*
X198844D01*
X188790Y631251D01*
X179777Y626047D01*
X172417Y618688D01*
X167214Y609674D01*
X164520Y599621D01*
Y599417D01*
X199047D01*
Y633945D01*
D02*
G37*
G36*
X705736Y599779D02*
X698264D01*
X691362Y596920D01*
X686080Y591638D01*
X683221Y584736D01*
Y577264D01*
X686080Y570362D01*
X691362Y565080D01*
X698264Y562221D01*
X705736D01*
X712638Y565080D01*
X717920Y570362D01*
X720779Y577264D01*
Y584736D01*
X717920Y591638D01*
X712638Y596920D01*
X705736Y599779D01*
D02*
G37*
G36*
X1396736Y597779D02*
X1389264D01*
X1382362Y594920D01*
X1377080Y589638D01*
X1374220Y582736D01*
Y575264D01*
X1377080Y568362D01*
X1382362Y563080D01*
X1389264Y560221D01*
X1396736D01*
X1403638Y563080D01*
X1408920Y568362D01*
X1411780Y575264D01*
Y582736D01*
X1408920Y589638D01*
X1403638Y594920D01*
X1396736Y597779D01*
D02*
G37*
G36*
X494480Y628945D02*
X425425D01*
Y559890D01*
X494480D01*
Y628945D01*
D02*
G37*
G36*
X243575Y589417D02*
X209047D01*
Y554890D01*
X209251D01*
X219304Y557583D01*
X228318Y562787D01*
X235677Y570147D01*
X240881Y579160D01*
X243575Y589213D01*
Y589417D01*
D02*
G37*
G36*
X199047D02*
X164520D01*
Y589213D01*
X167214Y579160D01*
X172417Y570147D01*
X179777Y562787D01*
X188790Y557583D01*
X198844Y554890D01*
X199047D01*
Y589417D01*
D02*
G37*
G36*
X1116736Y517779D02*
X1109264D01*
X1102362Y514920D01*
X1097080Y509638D01*
X1094220Y502736D01*
Y495264D01*
X1097080Y488362D01*
X1102362Y483079D01*
X1109264Y480221D01*
X1116736D01*
X1123638Y483079D01*
X1128920Y488362D01*
X1131780Y495264D01*
Y502736D01*
X1128920Y509638D01*
X1123638Y514920D01*
X1116736Y517779D01*
D02*
G37*
G36*
X977736Y512779D02*
X970264D01*
X963362Y509921D01*
X958080Y504638D01*
X955221Y497736D01*
Y490264D01*
X958080Y483362D01*
X963362Y478079D01*
X970264Y475221D01*
X977736D01*
X984638Y478079D01*
X989920Y483362D01*
X992779Y490264D01*
Y497736D01*
X989920Y504638D01*
X984638Y509921D01*
X977736Y512779D01*
D02*
G37*
G36*
X588736Y270779D02*
X581264D01*
X574362Y267921D01*
X569080Y262638D01*
X566221Y255736D01*
Y248264D01*
X569080Y241362D01*
X574362Y236079D01*
X581264Y233220D01*
X588736D01*
X595638Y236079D01*
X600920Y241362D01*
X603779Y248264D01*
Y255736D01*
X600920Y262638D01*
X595638Y267921D01*
X588736Y270779D01*
D02*
G37*
G36*
X316496Y233496D02*
X280000D01*
Y197000D01*
X316496D01*
Y233496D01*
D02*
G37*
G36*
X270000D02*
X233504D01*
Y197000D01*
X270000D01*
Y233496D01*
D02*
G37*
G36*
X675649Y211716D02*
X668351D01*
X661302Y209828D01*
X654982Y206179D01*
X649821Y201018D01*
X646172Y194698D01*
X644284Y187649D01*
Y180351D01*
X646172Y173302D01*
X649821Y166982D01*
X654982Y161821D01*
X661302Y158172D01*
X668351Y156284D01*
X675649D01*
X682698Y158172D01*
X689018Y161821D01*
X694179Y166982D01*
X697828Y173302D01*
X699716Y180351D01*
Y187649D01*
X697828Y194698D01*
X694179Y201018D01*
X689018Y206179D01*
X682698Y209828D01*
X675649Y211716D01*
D02*
G37*
G36*
X557539D02*
X550241D01*
X543192Y209828D01*
X536871Y206179D01*
X531711Y201018D01*
X528062Y194698D01*
X526173Y187649D01*
Y180351D01*
X528062Y173302D01*
X531711Y166982D01*
X536871Y161821D01*
X543192Y158172D01*
X550241Y156284D01*
X557539D01*
X564588Y158172D01*
X570908Y161821D01*
X576068Y166982D01*
X579717Y173302D01*
X581606Y180351D01*
Y187649D01*
X579717Y194698D01*
X576068Y201018D01*
X570908Y206179D01*
X564588Y209828D01*
X557539Y211716D01*
D02*
G37*
G36*
X379805Y228496D02*
X370195D01*
X360913Y226009D01*
X352591Y221204D01*
X345796Y214409D01*
X340991Y206087D01*
X338504Y196805D01*
Y187195D01*
X340991Y177913D01*
X345796Y169591D01*
X352591Y162796D01*
X360913Y157991D01*
X370195Y155504D01*
X379805D01*
X389087Y157991D01*
X397409Y162796D01*
X404204Y169591D01*
X409009Y177913D01*
X411496Y187195D01*
Y196805D01*
X409009Y206087D01*
X404204Y214409D01*
X397409Y221204D01*
X389087Y226009D01*
X379805Y228496D01*
D02*
G37*
G36*
X316496Y187000D02*
X280000D01*
Y150504D01*
X316496D01*
Y187000D01*
D02*
G37*
G36*
X270000D02*
X233504D01*
Y150504D01*
X270000D01*
Y187000D01*
D02*
G37*
G36*
X761000Y127668D02*
Y109000D01*
X779668D01*
X776159Y117470D01*
X769470Y124159D01*
X761000Y127668D01*
D02*
G37*
G36*
X751000D02*
X742530Y124159D01*
X735841Y117470D01*
X732332Y109000D01*
X751000D01*
Y127668D01*
D02*
G37*
G36*
X1706801Y169055D02*
X1705000D01*
Y105000D01*
X1769055D01*
Y106801D01*
X1766401Y120143D01*
X1761196Y132710D01*
X1753639Y144020D01*
X1744020Y153639D01*
X1732710Y161196D01*
X1720143Y166401D01*
X1706801Y169055D01*
D02*
G37*
G36*
X1695000D02*
X1693199D01*
X1679857Y166401D01*
X1667290Y161196D01*
X1655980Y153639D01*
X1646361Y144020D01*
X1638804Y132710D01*
X1633599Y120143D01*
X1630945Y106801D01*
Y105000D01*
X1695000D01*
Y169055D01*
D02*
G37*
G36*
X106801D02*
X105000D01*
Y105000D01*
X169055D01*
Y106801D01*
X166401Y120143D01*
X161196Y132710D01*
X153639Y144020D01*
X144020Y153639D01*
X132710Y161196D01*
X120143Y166401D01*
X106801Y169055D01*
D02*
G37*
G36*
X95000D02*
X93199D01*
X79857Y166401D01*
X67290Y161196D01*
X55980Y153639D01*
X46361Y144020D01*
X38804Y132710D01*
X33599Y120143D01*
X30945Y106801D01*
Y105000D01*
X95000D01*
Y169055D01*
D02*
G37*
G36*
X779668Y99000D02*
X761000D01*
Y80332D01*
X769470Y83841D01*
X776159Y90530D01*
X779668Y99000D01*
D02*
G37*
G36*
X751000D02*
X732332D01*
X735841Y90530D01*
X742530Y83841D01*
X751000Y80332D01*
Y99000D01*
D02*
G37*
G36*
X379167Y123653D02*
X370833D01*
X362782Y121496D01*
X355564Y117329D01*
X349671Y111436D01*
X345504Y104218D01*
X343346Y96167D01*
Y87833D01*
X345504Y79782D01*
X349671Y72564D01*
X355564Y66671D01*
X362782Y62504D01*
X370833Y60346D01*
X379167D01*
X387218Y62504D01*
X394436Y66671D01*
X400329Y72564D01*
X404496Y79782D01*
X406654Y87833D01*
Y96167D01*
X404496Y104218D01*
X400329Y111436D01*
X394436Y117329D01*
X387218Y121496D01*
X379167Y123653D01*
D02*
G37*
G36*
X279167D02*
X270833D01*
X262782Y121496D01*
X255564Y117329D01*
X249671Y111436D01*
X245504Y104218D01*
X243346Y96167D01*
Y87833D01*
X245504Y79782D01*
X249671Y72564D01*
X255564Y66671D01*
X262782Y62504D01*
X270833Y60346D01*
X279167D01*
X287218Y62504D01*
X294436Y66671D01*
X300329Y72564D01*
X304496Y79782D01*
X306654Y87833D01*
Y96167D01*
X304496Y104218D01*
X300329Y111436D01*
X294436Y117329D01*
X287218Y121496D01*
X279167Y123653D01*
D02*
G37*
G36*
X1769055Y95000D02*
X1705000D01*
Y30945D01*
X1706801D01*
X1720143Y33599D01*
X1732710Y38804D01*
X1744020Y46361D01*
X1753639Y55980D01*
X1761196Y67290D01*
X1766401Y79857D01*
X1769055Y93199D01*
Y95000D01*
D02*
G37*
G36*
X1695000D02*
X1630945D01*
Y93199D01*
X1633599Y79857D01*
X1638804Y67290D01*
X1646361Y55980D01*
X1655980Y46361D01*
X1667290Y38804D01*
X1679857Y33599D01*
X1693199Y30945D01*
X1695000D01*
Y95000D01*
D02*
G37*
G36*
X169055D02*
X105000D01*
Y30945D01*
X106801D01*
X120143Y33599D01*
X132710Y38804D01*
X144020Y46361D01*
X153639Y55980D01*
X161196Y67290D01*
X166401Y79857D01*
X169055Y93199D01*
Y95000D01*
D02*
G37*
G36*
X95000D02*
X30945D01*
Y93199D01*
X33599Y79857D01*
X38804Y67290D01*
X46361Y55980D01*
X55980Y46361D01*
X67290Y38804D01*
X79857Y33599D01*
X93199Y30945D01*
X95000D01*
Y95000D01*
D02*
G37*
%LPD*%
D56*
X459953Y594417D02*
D03*
D57*
Y771583D02*
D03*
X204047D02*
D03*
Y594417D02*
D03*
D59*
X1636614Y919394D02*
D03*
Y1116244D02*
D03*
D60*
X375000Y192000D02*
D03*
D61*
X275000D02*
D03*
D62*
X553890Y184000D02*
D03*
X672000D02*
D03*
D68*
X100000Y100000D02*
D03*
Y1700000D02*
D03*
X1700000Y100000D02*
D03*
Y1700000D02*
D03*
D69*
X1338000Y972220D02*
D03*
X1201000Y637000D02*
D03*
X1070000Y949000D02*
D03*
X938000Y1231000D02*
D03*
X1679000Y1592000D02*
D03*
X1607815Y1168185D02*
D03*
X1415000Y870000D02*
D03*
X1393000Y579000D02*
D03*
X1113000Y499000D02*
D03*
X756000Y104000D02*
D03*
X585000Y252000D02*
D03*
X702000Y581000D02*
D03*
X974000Y494000D02*
D03*
D70*
X1026000Y1057000D02*
D03*
X1131000Y996000D02*
D03*
X1181000D02*
D03*
X1266000Y676000D02*
D03*
X1221000D02*
D03*
X905000Y713000D02*
D03*
X952000D02*
D03*
X975042Y1006042D02*
D03*
X1117000Y879000D02*
D03*
X1045189Y848000D02*
D03*
X1067000Y903000D02*
D03*
X999000Y714213D02*
D03*
X1109300Y1034071D02*
D03*
X1077000Y1006000D02*
D03*
X1176000Y899000D02*
D03*
X1627000Y1270000D02*
D03*
X973875Y843189D02*
D03*
X1008000Y877000D02*
D03*
X1184000Y1054029D02*
D03*
X1426000Y1428000D02*
D03*
X1239000Y1340000D02*
D03*
X1423000Y1586000D02*
D03*
X1476000Y1426000D02*
D03*
X1677000Y1271000D02*
D03*
X1327000Y673000D02*
D03*
X1001000Y1301000D02*
D03*
X663000Y1149000D02*
D03*
X940346Y794000D02*
D03*
X1081000Y636000D02*
D03*
X1139000Y704000D02*
D03*
M02*
