G04*
G04 #@! TF.GenerationSoftware,Altium Limited,Altium Designer,24.8.2 (39)*
G04*
G04 Layer_Color=16711935*
%FSLAX26Y26*%
%MOIN*%
G70*
G04*
G04 #@! TF.SameCoordinates,943EF9C2-7E4B-4E9F-8D88-1E315B4C2DD2*
G04*
G04*
G04 #@! TF.FilePolarity,Negative*
G04*
G01*
G75*
%ADD56R,0.059055X0.059055*%
%ADD57C,0.059055*%
%ADD58C,0.126110*%
%ADD59C,0.057087*%
%ADD60C,0.062992*%
%ADD61R,0.062992X0.062992*%
%ADD62C,0.035433*%
%ADD63C,0.035559*%
%ADD64C,0.031622*%
D56*
X459953Y594417D02*
D03*
D57*
Y771583D02*
D03*
X204047D02*
D03*
Y594417D02*
D03*
D58*
X100000Y100000D02*
D03*
Y1700000D02*
D03*
X1700000Y100000D02*
D03*
Y1700000D02*
D03*
D59*
X1636614Y919394D02*
D03*
Y1116244D02*
D03*
D60*
X375000Y192000D02*
D03*
D61*
X275000D02*
D03*
D62*
X553890Y184000D02*
D03*
X672000D02*
D03*
D63*
X1338000Y972220D02*
D03*
X1201000Y637000D02*
D03*
X1070000Y949000D02*
D03*
X938000Y1231000D02*
D03*
X1679000Y1592000D02*
D03*
X1607815Y1168185D02*
D03*
X1415000Y870000D02*
D03*
X1393000Y579000D02*
D03*
X1113000Y499000D02*
D03*
X756000Y104000D02*
D03*
X585000Y252000D02*
D03*
X702000Y581000D02*
D03*
X974000Y494000D02*
D03*
D64*
X1026000Y1057000D02*
D03*
X1131000Y996000D02*
D03*
X1181000D02*
D03*
X1266000Y676000D02*
D03*
X1221000D02*
D03*
X905000Y713000D02*
D03*
X952000D02*
D03*
X975042Y1006042D02*
D03*
X1117000Y879000D02*
D03*
X1045189Y848000D02*
D03*
X1067000Y903000D02*
D03*
X999000Y714213D02*
D03*
X1109300Y1034071D02*
D03*
X1077000Y1006000D02*
D03*
X1176000Y899000D02*
D03*
X1627000Y1270000D02*
D03*
X973875Y843189D02*
D03*
X1008000Y877000D02*
D03*
X1184000Y1054029D02*
D03*
X1426000Y1428000D02*
D03*
X1239000Y1340000D02*
D03*
X1423000Y1586000D02*
D03*
X1476000Y1426000D02*
D03*
X1677000Y1271000D02*
D03*
X1327000Y673000D02*
D03*
X1001000Y1301000D02*
D03*
X663000Y1149000D02*
D03*
X940346Y794000D02*
D03*
X1081000Y636000D02*
D03*
X1139000Y704000D02*
D03*
M02*
