G04*
G04 #@! TF.GenerationSoftware,Altium Limited,Altium Designer,24.8.2 (39)*
G04*
G04 Layer_Color=65535*
%FSLAX26Y26*%
%MOIN*%
G70*
G04*
G04 #@! TF.SameCoordinates,943EF9C2-7E4B-4E9F-8D88-1E315B4C2DD2*
G04*
G04*
G04 #@! TF.FilePolarity,Positive*
G04*
G01*
G75*
%ADD10C,0.009842*%
%ADD11C,0.010000*%
%ADD12C,0.006000*%
D10*
X510921Y594000D02*
G03*
X510921Y594000I-4921J0D01*
G01*
D11*
X1732000Y1578118D02*
G03*
X1732000Y1578118I-5000J0D01*
G01*
X1616000Y687000D02*
G03*
X1616000Y687000I-5000J0D01*
G01*
X1624764Y871819D02*
G03*
X1624764Y871819I-5000J0D01*
G01*
X1352236Y896000D02*
G03*
X1352236Y896000I-2236J0D01*
G01*
X1195000Y1162000D02*
G03*
X1195000Y1162000I-5000J0D01*
G01*
X877000Y1058000D02*
G03*
X877000Y1058000I-5000J0D01*
G01*
X1059000Y1250000D02*
G03*
X1059000Y1250000I-5000J0D01*
G01*
X944165Y688630D02*
G03*
X944165Y688630I-5000J0D01*
G01*
X1057232Y730472D02*
G03*
X1057232Y730472I-5000J0D01*
G01*
D12*
X56000Y1345043D02*
Y1371700D01*
X69329Y1385030D01*
X82658Y1371700D01*
Y1345043D01*
Y1365036D01*
X56000D01*
X95987Y1371700D02*
Y1351707D01*
X102652Y1345043D01*
X122645D01*
Y1338378D01*
X115981Y1331714D01*
X109316D01*
X122645Y1345043D02*
Y1371700D01*
X135974D02*
Y1351707D01*
X142639Y1345043D01*
X162632D01*
Y1371700D01*
X175961Y1345043D02*
X195955D01*
X202619Y1351707D01*
X195955Y1358371D01*
X182626D01*
X175961Y1365036D01*
X182626Y1371700D01*
X202619D01*
X215948Y1385030D02*
Y1345043D01*
Y1365036D01*
X222613Y1371700D01*
X235942D01*
X242606Y1365036D01*
Y1345043D01*
X295923Y1385030D02*
Y1345043D01*
X315916D01*
X322581Y1351707D01*
Y1358371D01*
X315916Y1365036D01*
X295923D01*
X315916D01*
X322581Y1371700D01*
Y1378365D01*
X315916Y1385030D01*
X295923D01*
X342574Y1371700D02*
X355903D01*
X362568Y1365036D01*
Y1345043D01*
X342574D01*
X335910Y1351707D01*
X342574Y1358371D01*
X362568D01*
X375897Y1345043D02*
Y1371700D01*
X395890D01*
X402555Y1365036D01*
Y1345043D01*
X435877D02*
X422548D01*
X415884Y1351707D01*
Y1365036D01*
X422548Y1371700D01*
X435877D01*
X442542Y1365036D01*
Y1358371D01*
X415884D01*
X455871Y1371700D02*
Y1345043D01*
Y1358371D01*
X462536Y1365036D01*
X469200Y1371700D01*
X475865D01*
X495858Y1331714D02*
X502523D01*
X509187Y1338378D01*
Y1371700D01*
X555839Y1345043D02*
X542510D01*
X535845Y1351707D01*
Y1365036D01*
X542510Y1371700D01*
X555839D01*
X562503Y1365036D01*
Y1358371D01*
X535845D01*
X595826Y1345043D02*
X582497D01*
X575832Y1351707D01*
Y1365036D01*
X582497Y1371700D01*
X595826D01*
X602490Y1365036D01*
Y1358371D01*
X575832D01*
X82658Y1309316D02*
X69329D01*
X75993D01*
Y1275994D01*
X69329Y1269329D01*
X62664D01*
X56000Y1275994D01*
X95987Y1295987D02*
Y1275994D01*
X102652Y1269329D01*
X122645D01*
Y1295987D01*
X135974Y1269329D02*
X149303D01*
X142639D01*
Y1309316D01*
X135974D01*
X169297Y1295987D02*
Y1275994D01*
X175961Y1269329D01*
X195955D01*
Y1262665D01*
X189290Y1256000D01*
X182626D01*
X195955Y1269329D02*
Y1295987D01*
X275929Y1269329D02*
X249271D01*
X275929Y1295987D01*
Y1302652D01*
X269264Y1309316D01*
X255935D01*
X249271Y1302652D01*
X289258D02*
X295923Y1309316D01*
X309252D01*
X315916Y1302652D01*
Y1275994D01*
X309252Y1269329D01*
X295923D01*
X289258Y1275994D01*
Y1302652D01*
X355903Y1269329D02*
X329245D01*
X355903Y1295987D01*
Y1302652D01*
X349239Y1309316D01*
X335910D01*
X329245Y1302652D01*
X389226Y1269329D02*
Y1309316D01*
X369232Y1289322D01*
X395890D01*
X1386567Y521994D02*
X1373238D01*
X1379902D01*
Y488671D01*
X1373238Y482007D01*
X1366573D01*
X1359909Y488671D01*
X1426554Y521994D02*
X1399896D01*
Y502000D01*
X1413225Y508664D01*
X1419889D01*
X1426554Y502000D01*
Y488671D01*
X1419889Y482007D01*
X1406561D01*
X1399896Y488671D01*
X242335Y857994D02*
X229006D01*
X235671D01*
Y824671D01*
X229006Y818006D01*
X222342D01*
X215678Y824671D01*
X255665Y851329D02*
X262329Y857994D01*
X275658D01*
X282323Y851329D01*
Y844664D01*
X275658Y838000D01*
X268994D01*
X275658D01*
X282323Y831336D01*
Y824671D01*
X275658Y818006D01*
X262329D01*
X255665Y824671D01*
X733635Y630111D02*
X726971Y623447D01*
Y610118D01*
X733635Y603453D01*
X760293D01*
X766958Y610118D01*
Y623447D01*
X760293Y630111D01*
X766958Y670099D02*
Y643441D01*
X740300Y670099D01*
X733635D01*
X726971Y663434D01*
Y650105D01*
X733635Y643441D01*
X766958Y703421D02*
X726971D01*
X746964Y683428D01*
Y710086D01*
X246335Y358994D02*
X233006D01*
X239671D01*
Y325671D01*
X233006Y319007D01*
X226342D01*
X219678Y325671D01*
X279658Y319007D02*
Y358994D01*
X259665Y339000D01*
X286323D01*
X598678Y547994D02*
Y541329D01*
X612006Y528000D01*
X625336Y541329D01*
Y547994D01*
X612006Y528000D02*
Y508007D01*
X638665Y541329D02*
X645329Y547994D01*
X658658D01*
X665323Y541329D01*
Y534664D01*
X658658Y528000D01*
X651994D01*
X658658D01*
X665323Y521336D01*
Y514671D01*
X658658Y508007D01*
X645329D01*
X638665Y514671D01*
X829685Y1557726D02*
Y1551061D01*
X843014Y1537732D01*
X856343Y1551061D01*
Y1557726D01*
X843014Y1537732D02*
Y1517739D01*
X896331D02*
X869673D01*
X896331Y1544397D01*
Y1551061D01*
X889666Y1557726D01*
X876337D01*
X869673Y1551061D01*
X561342Y1110994D02*
Y1104329D01*
X574671Y1091000D01*
X588000Y1104329D01*
Y1110994D01*
X574671Y1091000D02*
Y1071006D01*
X601329D02*
X614658D01*
X607994D01*
Y1110994D01*
X601329Y1104329D01*
X1019006Y650678D02*
X1052329D01*
X1058994Y657342D01*
Y670671D01*
X1052329Y677336D01*
X1019006D01*
X1058994Y710658D02*
X1019006D01*
X1039000Y690665D01*
Y717323D01*
X819678Y721994D02*
Y688671D01*
X826342Y682006D01*
X839671D01*
X846336Y688671D01*
Y721994D01*
X859665Y715329D02*
X866329Y721994D01*
X879658D01*
X886323Y715329D01*
Y708664D01*
X879658Y702000D01*
X872994D01*
X879658D01*
X886323Y695336D01*
Y688671D01*
X879658Y682006D01*
X866329D01*
X859665Y688671D01*
X884678Y1135994D02*
Y1102671D01*
X891342Y1096006D01*
X904671D01*
X911336Y1102671D01*
Y1135994D01*
X951323Y1096006D02*
X924665D01*
X951323Y1122665D01*
Y1129329D01*
X944658Y1135994D01*
X931329D01*
X924665Y1129329D01*
X1410342Y954994D02*
Y921671D01*
X1417006Y915006D01*
X1430335D01*
X1437000Y921671D01*
Y954994D01*
X1450329Y915006D02*
X1463658D01*
X1456994D01*
Y954994D01*
X1450329Y948329D01*
X471006Y328329D02*
X464342Y334994D01*
X451013D01*
X444348Y328329D01*
Y321664D01*
X451013Y315000D01*
X464342D01*
X471006Y308336D01*
Y301671D01*
X464342Y295007D01*
X451013D01*
X444348Y301671D01*
X484336Y334994D02*
Y295007D01*
X497664Y308336D01*
X510993Y295007D01*
Y334994D01*
X524323Y295007D02*
X537652D01*
X530987D01*
Y334994D01*
X524323Y328329D01*
X1253006Y799468D02*
X1292994D01*
Y779474D01*
X1286329Y772810D01*
X1273000D01*
X1266335Y779474D01*
Y799468D01*
Y786139D02*
X1253006Y772810D01*
Y759481D02*
Y746152D01*
Y752816D01*
X1292994D01*
X1286329Y759481D01*
X1292994Y699500D02*
X1286329Y712829D01*
X1273000Y726158D01*
X1259671D01*
X1253006Y719494D01*
Y706165D01*
X1259671Y699500D01*
X1266335D01*
X1273000Y706165D01*
Y726158D01*
X1259016Y614006D02*
Y653994D01*
X1279010D01*
X1285674Y647329D01*
Y634000D01*
X1279010Y627336D01*
X1259016D01*
X1272345D02*
X1285674Y614006D01*
X1299003D02*
X1312332D01*
X1305668D01*
Y653994D01*
X1299003Y647329D01*
X1358984Y653994D02*
X1332326D01*
Y634000D01*
X1345655Y640664D01*
X1352319D01*
X1358984Y634000D01*
Y620671D01*
X1352319Y614006D01*
X1338990D01*
X1332326Y620671D01*
X612994Y402016D02*
X573006D01*
Y422010D01*
X579671Y428674D01*
X593000D01*
X599664Y422010D01*
Y402016D01*
Y415345D02*
X612994Y428674D01*
Y442003D02*
Y455332D01*
Y448668D01*
X573006D01*
X579671Y442003D01*
X612994Y495319D02*
X573006D01*
X593000Y475326D01*
Y501984D01*
X1029016Y436007D02*
Y475994D01*
X1049010D01*
X1055674Y469329D01*
Y456000D01*
X1049010Y449336D01*
X1029016D01*
X1042345D02*
X1055674Y436007D01*
X1069003D02*
X1082332D01*
X1075668D01*
Y475994D01*
X1069003Y469329D01*
X1102326D02*
X1108990Y475994D01*
X1122319D01*
X1128984Y469329D01*
Y462664D01*
X1122319Y456000D01*
X1115655D01*
X1122319D01*
X1128984Y449336D01*
Y442671D01*
X1122319Y436007D01*
X1108990D01*
X1102326Y442671D01*
X1380994Y1298016D02*
X1341006D01*
Y1318010D01*
X1347671Y1324674D01*
X1361000D01*
X1367665Y1318010D01*
Y1298016D01*
Y1311345D02*
X1380994Y1324674D01*
Y1338003D02*
Y1351332D01*
Y1344668D01*
X1341006D01*
X1347671Y1338003D01*
X1380994Y1397984D02*
Y1371326D01*
X1354335Y1397984D01*
X1347671D01*
X1341006Y1391319D01*
Y1377990D01*
X1347671Y1371326D01*
X714994Y722681D02*
X675006D01*
Y742674D01*
X681671Y749339D01*
X695000D01*
X701664Y742674D01*
Y722681D01*
Y736010D02*
X714994Y749339D01*
Y762668D02*
Y775997D01*
Y769332D01*
X675006D01*
X681671Y762668D01*
X714994Y795990D02*
Y809319D01*
Y802655D01*
X675006D01*
X681671Y795990D01*
X777006Y1278984D02*
X816994D01*
Y1258990D01*
X810329Y1252326D01*
X797000D01*
X790336Y1258990D01*
Y1278984D01*
Y1265655D02*
X777006Y1252326D01*
Y1238997D02*
Y1225668D01*
Y1232332D01*
X816994D01*
X810329Y1238997D01*
Y1205674D02*
X816994Y1199010D01*
Y1185681D01*
X810329Y1179016D01*
X783671D01*
X777006Y1185681D01*
Y1199010D01*
X783671Y1205674D01*
X810329D01*
X707006Y1246322D02*
X746994D01*
Y1226329D01*
X740329Y1219665D01*
X727000D01*
X720336Y1226329D01*
Y1246322D01*
Y1232994D02*
X707006Y1219665D01*
X713671Y1206335D02*
X707006Y1199671D01*
Y1186342D01*
X713671Y1179677D01*
X740329D01*
X746994Y1186342D01*
Y1199671D01*
X740329Y1206335D01*
X733664D01*
X727000Y1199671D01*
Y1179677D01*
X1206678Y1282006D02*
Y1321994D01*
X1226671D01*
X1233335Y1315329D01*
Y1302000D01*
X1226671Y1295335D01*
X1206678D01*
X1220006D02*
X1233335Y1282006D01*
X1246665Y1315329D02*
X1253329Y1321994D01*
X1266658D01*
X1273323Y1315329D01*
Y1308665D01*
X1266658Y1302000D01*
X1273323Y1295335D01*
Y1288671D01*
X1266658Y1282006D01*
X1253329D01*
X1246665Y1288671D01*
Y1295335D01*
X1253329Y1302000D01*
X1246665Y1308665D01*
Y1315329D01*
X1253329Y1302000D02*
X1266658D01*
X809557Y979696D02*
Y1019683D01*
X829551D01*
X836215Y1013018D01*
Y999689D01*
X829551Y993024D01*
X809557D01*
X822886D02*
X836215Y979696D01*
X849544Y1019683D02*
X876202D01*
Y1013018D01*
X849544Y986360D01*
Y979696D01*
X821994Y859678D02*
X782006D01*
Y879671D01*
X788671Y886336D01*
X802000D01*
X808664Y879671D01*
Y859678D01*
Y873006D02*
X821994Y886336D01*
X782006Y926323D02*
X788671Y912994D01*
X802000Y899665D01*
X815329D01*
X821994Y906329D01*
Y919658D01*
X815329Y926323D01*
X808664D01*
X802000Y919658D01*
Y899665D01*
X1402678Y966006D02*
Y1005994D01*
X1422671D01*
X1429335Y999329D01*
Y986000D01*
X1422671Y979336D01*
X1402678D01*
X1416006D02*
X1429335Y966006D01*
X1469323Y1005994D02*
X1442665D01*
Y986000D01*
X1455994Y992664D01*
X1462658D01*
X1469323Y986000D01*
Y972671D01*
X1462658Y966006D01*
X1449329D01*
X1442665Y972671D01*
X1659994Y562678D02*
X1620006D01*
Y582671D01*
X1626671Y589336D01*
X1640000D01*
X1646665Y582671D01*
Y562678D01*
Y576006D02*
X1659994Y589336D01*
Y622658D02*
X1620006D01*
X1640000Y602665D01*
Y629323D01*
X1413678Y1621006D02*
Y1660994D01*
X1433671D01*
X1440335Y1654329D01*
Y1641000D01*
X1433671Y1634335D01*
X1413678D01*
X1427006D02*
X1440335Y1621006D01*
X1453665Y1654329D02*
X1460329Y1660994D01*
X1473658D01*
X1480323Y1654329D01*
Y1647665D01*
X1473658Y1641000D01*
X1466994D01*
X1473658D01*
X1480323Y1634335D01*
Y1627671D01*
X1473658Y1621006D01*
X1460329D01*
X1453665Y1627671D01*
X1315994Y935678D02*
X1276006D01*
Y955671D01*
X1282671Y962336D01*
X1296000D01*
X1302665Y955671D01*
Y935678D01*
Y949006D02*
X1315994Y962336D01*
Y1002323D02*
Y975665D01*
X1289335Y1002323D01*
X1282671D01*
X1276006Y995658D01*
Y982329D01*
X1282671Y975665D01*
X1373006Y658658D02*
X1412994D01*
Y638664D01*
X1406329Y632000D01*
X1393000D01*
X1386335Y638664D01*
Y658658D01*
Y645329D02*
X1373006Y632000D01*
Y618671D02*
Y605342D01*
Y612006D01*
X1412994D01*
X1406329Y618671D01*
X845994Y430322D02*
X806006D01*
Y403664D01*
X839329Y390335D02*
X845994Y383671D01*
Y370342D01*
X839329Y363677D01*
X832664D01*
X826000Y370342D01*
Y377006D01*
Y370342D01*
X819336Y363677D01*
X812671D01*
X806006Y370342D01*
Y383671D01*
X812671Y390335D01*
X949994Y412322D02*
X910006D01*
Y385664D01*
Y345677D02*
Y372335D01*
X936664Y345677D01*
X943329D01*
X949994Y352342D01*
Y365671D01*
X943329Y372335D01*
X898994Y410658D02*
X859006D01*
Y384000D01*
Y370671D02*
Y357342D01*
Y364006D01*
X898994D01*
X892329Y370671D01*
X1347335Y1562994D02*
X1334006D01*
X1340671D01*
Y1529671D01*
X1334006Y1523006D01*
X1327342D01*
X1320678Y1529671D01*
X1387323Y1523006D02*
X1360665D01*
X1387323Y1549665D01*
Y1556329D01*
X1380658Y1562994D01*
X1367329D01*
X1360665Y1556329D01*
X1740000Y1228994D02*
X1726671D01*
X1733335D01*
Y1195671D01*
X1726671Y1189006D01*
X1720006D01*
X1713342Y1195671D01*
X1753329Y1189006D02*
X1766658D01*
X1759994D01*
Y1228994D01*
X1753329Y1222329D01*
X1520994Y1015994D02*
Y1042651D01*
X1501000D01*
Y1029322D01*
Y1042651D01*
X1481006D01*
X1520994Y1002664D02*
X1481006D01*
Y982671D01*
X1487671Y976006D01*
X1494335D01*
X1501000Y982671D01*
Y1002664D01*
Y982671D01*
X1507664Y976006D01*
X1514329D01*
X1520994Y982671D01*
Y1002664D01*
X1481006Y962677D02*
Y949348D01*
Y956013D01*
X1520994D01*
X1514329Y962677D01*
X1096678Y1227994D02*
Y1188006D01*
X1116671D01*
X1123335Y1194671D01*
Y1221329D01*
X1116671Y1227994D01*
X1096678D01*
X1163323Y1188006D02*
X1136665D01*
X1163323Y1214665D01*
Y1221329D01*
X1156658Y1227994D01*
X1143329D01*
X1136665Y1221329D01*
X1629342Y705994D02*
Y666006D01*
X1649335D01*
X1656000Y672671D01*
Y699329D01*
X1649335Y705994D01*
X1629342D01*
X1669329Y666006D02*
X1682658D01*
X1675994D01*
Y705994D01*
X1669329Y699329D01*
X1240342Y541329D02*
X1233677Y547994D01*
X1220348D01*
X1213684Y541329D01*
Y514671D01*
X1220348Y508007D01*
X1233677D01*
X1240342Y514671D01*
X1253671Y541329D02*
X1260335Y547994D01*
X1273665D01*
X1280329Y541329D01*
Y534664D01*
X1273665Y528000D01*
X1267000D01*
X1273665D01*
X1280329Y521336D01*
Y514671D01*
X1273665Y508007D01*
X1260335D01*
X1253671Y514671D01*
X1293658Y541329D02*
X1300323Y547994D01*
X1313652D01*
X1320316Y541329D01*
Y514671D01*
X1313652Y508007D01*
X1300323D01*
X1293658Y514671D01*
Y541329D01*
X1239342Y596329D02*
X1232677Y602994D01*
X1219348D01*
X1212684Y596329D01*
Y569671D01*
X1219348Y563006D01*
X1232677D01*
X1239342Y569671D01*
X1279329Y563006D02*
X1252671D01*
X1279329Y589664D01*
Y596329D01*
X1272665Y602994D01*
X1259335D01*
X1252671Y596329D01*
X1292658Y569671D02*
X1299323Y563006D01*
X1312652D01*
X1319316Y569671D01*
Y596329D01*
X1312652Y602994D01*
X1299323D01*
X1292658Y596329D01*
Y589664D01*
X1299323Y583000D01*
X1319316D01*
X438342Y490329D02*
X431677Y496994D01*
X418348D01*
X411684Y490329D01*
Y463671D01*
X418348Y457007D01*
X431677D01*
X438342Y463671D01*
X478329Y457007D02*
X451671D01*
X478329Y483664D01*
Y490329D01*
X471664Y496994D01*
X458336D01*
X451671Y490329D01*
X491658D02*
X498323Y496994D01*
X511652D01*
X518316Y490329D01*
Y483664D01*
X511652Y477000D01*
X518316Y470336D01*
Y463671D01*
X511652Y457007D01*
X498323D01*
X491658Y463671D01*
Y470336D01*
X498323Y477000D01*
X491658Y483664D01*
Y490329D01*
X498323Y477000D02*
X511652D01*
X1039671Y559342D02*
X1033006Y552678D01*
Y539348D01*
X1039671Y532684D01*
X1066329D01*
X1072993Y539348D01*
Y552678D01*
X1066329Y559342D01*
X1072993Y599329D02*
Y572671D01*
X1046335Y599329D01*
X1039671D01*
X1033006Y592665D01*
Y579336D01*
X1039671Y572671D01*
X1033006Y612658D02*
Y639316D01*
X1039671D01*
X1066329Y612658D01*
X1072993D01*
X438342Y423329D02*
X431677Y429994D01*
X418348D01*
X411684Y423329D01*
Y396671D01*
X418348Y390007D01*
X431677D01*
X438342Y396671D01*
X478329Y390007D02*
X451671D01*
X478329Y416664D01*
Y423329D01*
X471664Y429994D01*
X458336D01*
X451671Y423329D01*
X518316Y429994D02*
X504987Y423329D01*
X491658Y410000D01*
Y396671D01*
X498323Y390007D01*
X511652D01*
X518316Y396671D01*
Y403336D01*
X511652Y410000D01*
X491658D01*
X635671Y586342D02*
X629006Y579678D01*
Y566348D01*
X635671Y559684D01*
X662329D01*
X668993Y566348D01*
Y579678D01*
X662329Y586342D01*
X668993Y626329D02*
Y599671D01*
X642335Y626329D01*
X635671D01*
X629006Y619665D01*
Y606336D01*
X635671Y599671D01*
X629006Y666316D02*
Y639658D01*
X649000D01*
X642335Y652987D01*
Y659652D01*
X649000Y666316D01*
X662329D01*
X668993Y659652D01*
Y646323D01*
X662329Y639658D01*
X841147Y208293D02*
X834483Y214958D01*
X821154D01*
X814489Y208293D01*
Y181635D01*
X821154Y174971D01*
X834483D01*
X841147Y181635D01*
X881134Y174971D02*
X854476D01*
X881134Y201629D01*
Y208293D01*
X874470Y214958D01*
X861141D01*
X854476Y208293D01*
X894463D02*
X901128Y214958D01*
X914457D01*
X921121Y208293D01*
Y201629D01*
X914457Y194964D01*
X907792D01*
X914457D01*
X921121Y188300D01*
Y181635D01*
X914457Y174971D01*
X901128D01*
X894463Y181635D01*
X842342Y302329D02*
X835677Y308994D01*
X822348D01*
X815684Y302329D01*
Y275671D01*
X822348Y269007D01*
X835677D01*
X842342Y275671D01*
X882329Y269007D02*
X855671D01*
X882329Y295664D01*
Y302329D01*
X875664Y308994D01*
X862336D01*
X855671Y302329D01*
X922316Y269007D02*
X895658D01*
X922316Y295664D01*
Y302329D01*
X915652Y308994D01*
X902323D01*
X895658Y302329D01*
X1082006Y347329D02*
X1075342Y353994D01*
X1062013D01*
X1055348Y347329D01*
Y320671D01*
X1062013Y314007D01*
X1075342D01*
X1082006Y320671D01*
X1121994Y314007D02*
X1095335D01*
X1121994Y340664D01*
Y347329D01*
X1115329Y353994D01*
X1102000D01*
X1095335Y347329D01*
X1135323Y314007D02*
X1148652D01*
X1141987D01*
Y353994D01*
X1135323Y347329D01*
X1061342Y402329D02*
X1054677Y408994D01*
X1041348D01*
X1034684Y402329D01*
Y375671D01*
X1041348Y369007D01*
X1054677D01*
X1061342Y375671D01*
X1101329Y369007D02*
X1074671D01*
X1101329Y395664D01*
Y402329D01*
X1094665Y408994D01*
X1081335D01*
X1074671Y402329D01*
X1114658D02*
X1121323Y408994D01*
X1134652D01*
X1141316Y402329D01*
Y375671D01*
X1134652Y369007D01*
X1121323D01*
X1114658Y375671D01*
Y402329D01*
X568671Y588674D02*
X562006Y582010D01*
Y568681D01*
X568671Y562016D01*
X595329D01*
X601994Y568681D01*
Y582010D01*
X595329Y588674D01*
X601994Y602003D02*
Y615332D01*
Y608668D01*
X562006D01*
X568671Y602003D01*
X595329Y635326D02*
X601994Y641990D01*
Y655319D01*
X595329Y661984D01*
X568671D01*
X562006Y655319D01*
Y641990D01*
X568671Y635326D01*
X575336D01*
X582000Y641990D01*
Y661984D01*
X1078674Y1499329D02*
X1072010Y1505994D01*
X1058681D01*
X1052016Y1499329D01*
Y1472671D01*
X1058681Y1466006D01*
X1072010D01*
X1078674Y1472671D01*
X1092003Y1466006D02*
X1105332D01*
X1098668D01*
Y1505994D01*
X1092003Y1499329D01*
X1125326D02*
X1131990Y1505994D01*
X1145319D01*
X1151984Y1499329D01*
Y1492665D01*
X1145319Y1486000D01*
X1151984Y1479335D01*
Y1472671D01*
X1145319Y1466006D01*
X1131990D01*
X1125326Y1472671D01*
Y1479335D01*
X1131990Y1486000D01*
X1125326Y1492665D01*
Y1499329D01*
X1131990Y1486000D02*
X1145319D01*
X1114674Y1322329D02*
X1108010Y1328994D01*
X1094681D01*
X1088016Y1322329D01*
Y1295671D01*
X1094681Y1289006D01*
X1108010D01*
X1114674Y1295671D01*
X1128003Y1289006D02*
X1141332D01*
X1134668D01*
Y1328994D01*
X1128003Y1322329D01*
X1161326Y1328994D02*
X1187984D01*
Y1322329D01*
X1161326Y1295671D01*
Y1289006D01*
X751674Y1495329D02*
X745010Y1501994D01*
X731681D01*
X725016Y1495329D01*
Y1468671D01*
X731681Y1462006D01*
X745010D01*
X751674Y1468671D01*
X765003Y1462006D02*
X778332D01*
X771668D01*
Y1501994D01*
X765003Y1495329D01*
X824984Y1501994D02*
X811655Y1495329D01*
X798326Y1482000D01*
Y1468671D01*
X804990Y1462006D01*
X818319D01*
X824984Y1468671D01*
Y1475335D01*
X818319Y1482000D01*
X798326D01*
X736671Y770674D02*
X730006Y764010D01*
Y750681D01*
X736671Y744016D01*
X763329D01*
X769994Y750681D01*
Y764010D01*
X763329Y770674D01*
X769994Y784003D02*
Y797332D01*
Y790668D01*
X730006D01*
X736671Y784003D01*
X730006Y843984D02*
Y817326D01*
X750000D01*
X743336Y830655D01*
Y837319D01*
X750000Y843984D01*
X763329D01*
X769994Y837319D01*
Y823990D01*
X763329Y817326D01*
X1551329Y1250326D02*
X1557994Y1256990D01*
Y1270319D01*
X1551329Y1276984D01*
X1524671D01*
X1518006Y1270319D01*
Y1256990D01*
X1524671Y1250326D01*
X1518006Y1236997D02*
Y1223668D01*
Y1230332D01*
X1557994D01*
X1551329Y1236997D01*
X1518006Y1183681D02*
X1557994D01*
X1538000Y1203674D01*
Y1177016D01*
X1491329Y1250326D02*
X1497994Y1256990D01*
Y1270319D01*
X1491329Y1276984D01*
X1464671D01*
X1458006Y1270319D01*
Y1256990D01*
X1464671Y1250326D01*
X1458006Y1236997D02*
Y1223668D01*
Y1230332D01*
X1497994D01*
X1491329Y1236997D01*
Y1203674D02*
X1497994Y1197010D01*
Y1183681D01*
X1491329Y1177016D01*
X1484665D01*
X1478000Y1183681D01*
Y1190345D01*
Y1183681D01*
X1471335Y1177016D01*
X1464671D01*
X1458006Y1183681D01*
Y1197010D01*
X1464671Y1203674D01*
X1432329Y1250326D02*
X1438994Y1256990D01*
Y1270319D01*
X1432329Y1276984D01*
X1405671D01*
X1399006Y1270319D01*
Y1256990D01*
X1405671Y1250326D01*
X1399006Y1236997D02*
Y1223668D01*
Y1230332D01*
X1438994D01*
X1432329Y1236997D01*
X1399006Y1177016D02*
Y1203674D01*
X1425665Y1177016D01*
X1432329D01*
X1438994Y1183681D01*
Y1197010D01*
X1432329Y1203674D01*
X1370329Y1250661D02*
X1376994Y1257326D01*
Y1270655D01*
X1370329Y1277319D01*
X1343671D01*
X1337006Y1270655D01*
Y1257326D01*
X1343671Y1250661D01*
X1337006Y1237332D02*
Y1224003D01*
Y1230668D01*
X1376994D01*
X1370329Y1237332D01*
X1337006Y1204010D02*
Y1190681D01*
Y1197345D01*
X1376994D01*
X1370329Y1204010D01*
X1307329Y1251326D02*
X1313994Y1257990D01*
Y1271319D01*
X1307329Y1277984D01*
X1280671D01*
X1274006Y1271319D01*
Y1257990D01*
X1280671Y1251326D01*
X1274006Y1237997D02*
Y1224668D01*
Y1231332D01*
X1313994D01*
X1307329Y1237997D01*
Y1204674D02*
X1313994Y1198010D01*
Y1184681D01*
X1307329Y1178016D01*
X1280671D01*
X1274006Y1184681D01*
Y1198010D01*
X1280671Y1204674D01*
X1307329D01*
X859336Y782329D02*
X852671Y788994D01*
X839342D01*
X832678Y782329D01*
Y755671D01*
X839342Y749006D01*
X852671D01*
X859336Y755671D01*
X872665D02*
X879329Y749006D01*
X892658D01*
X899323Y755671D01*
Y782329D01*
X892658Y788994D01*
X879329D01*
X872665Y782329D01*
Y775664D01*
X879329Y769000D01*
X899323D01*
X869336Y1179329D02*
X862671Y1185994D01*
X849342D01*
X842678Y1179329D01*
Y1152671D01*
X849342Y1146006D01*
X862671D01*
X869336Y1152671D01*
X882665Y1179329D02*
X889329Y1185994D01*
X902658D01*
X909323Y1179329D01*
Y1172665D01*
X902658Y1166000D01*
X909323Y1159335D01*
Y1152671D01*
X902658Y1146006D01*
X889329D01*
X882665Y1152671D01*
Y1159335D01*
X889329Y1166000D01*
X882665Y1172665D01*
Y1179329D01*
X889329Y1166000D02*
X902658D01*
X469336Y914329D02*
X462671Y920994D01*
X449342D01*
X442678Y914329D01*
Y887671D01*
X449342Y881006D01*
X462671D01*
X469336Y887671D01*
X482665Y920994D02*
X509323D01*
Y914329D01*
X482665Y887671D01*
Y881006D01*
X468336Y1089329D02*
X461671Y1095994D01*
X448342D01*
X441678Y1089329D01*
Y1062671D01*
X448342Y1056006D01*
X461671D01*
X468336Y1062671D01*
X508323Y1095994D02*
X494994Y1089329D01*
X481665Y1076000D01*
Y1062671D01*
X488329Y1056006D01*
X501658D01*
X508323Y1062671D01*
Y1069335D01*
X501658Y1076000D01*
X481665D01*
X1568329Y987664D02*
X1574994Y994329D01*
Y1007658D01*
X1568329Y1014322D01*
X1541671D01*
X1535006Y1007658D01*
Y994329D01*
X1541671Y987664D01*
X1574994Y947677D02*
Y974335D01*
X1555000D01*
X1561665Y961006D01*
Y954342D01*
X1555000Y947677D01*
X1541671D01*
X1535006Y954342D01*
Y967671D01*
X1541671Y974335D01*
X1664335Y751329D02*
X1657671Y757994D01*
X1644342D01*
X1637678Y751329D01*
Y724671D01*
X1644342Y718006D01*
X1657671D01*
X1664335Y724671D01*
X1697658Y718006D02*
Y757994D01*
X1677665Y738000D01*
X1704323D01*
X1664905Y811329D02*
X1658241Y817994D01*
X1644911D01*
X1638247Y811329D01*
Y784671D01*
X1644911Y778006D01*
X1658241D01*
X1664905Y784671D01*
X1678234Y811329D02*
X1684899Y817994D01*
X1698228D01*
X1704892Y811329D01*
Y804664D01*
X1698228Y798000D01*
X1691563D01*
X1698228D01*
X1704892Y791336D01*
Y784671D01*
X1698228Y778006D01*
X1684899D01*
X1678234Y784671D01*
X1455671Y586336D02*
X1449006Y579671D01*
Y566342D01*
X1455671Y559678D01*
X1482329D01*
X1488994Y566342D01*
Y579671D01*
X1482329Y586336D01*
X1488994Y626323D02*
Y599665D01*
X1462335Y626323D01*
X1455671D01*
X1449006Y619658D01*
Y606329D01*
X1455671Y599665D01*
X1470329Y672000D02*
X1476994Y678664D01*
Y691994D01*
X1470329Y698658D01*
X1443671D01*
X1437006Y691994D01*
Y678664D01*
X1443671Y672000D01*
X1437006Y658671D02*
Y645342D01*
Y652006D01*
X1476994D01*
X1470329Y658671D01*
M02*
