M48
;Layer_Color=9474304
;FILE_FORMAT=2:5
INCH,LZ
;TYPE=PLATED
T01F00S00C0.00984
T02F00S00C0.01181
T04F00S00C0.03346
T05F00S00C0.03898
T06F00S00C0.04331
T07F00S00C0.07874
;TYPE=NON_PLATED
T08F00S00C0.03543
T09F00S00C0.04331
%
T01
X00905Y00713
X00952
X00999Y0071421
X0094035Y00794
X0097387Y0084319
X01008Y00877
X0104519Y00848
X01067Y00903
X01117Y00879
X01131Y00996
X011093Y0103407
X01077Y01006
X01026Y01057
X0097504Y0100604
X01001Y01301
X00663Y01149
X01139Y00704
X01081Y00636
X01221Y00676
X01266
X01327Y00673
X01176Y00899
X01181Y00996
X01184Y0105403
X01239Y0134
X01426Y01428
X01476Y01426
X01423Y01586
X01627Y0127
X01677Y01271
T02
X00585Y00252
X00756Y00104
X00702Y00581
X00974Y00494
X01113Y00499
X0107Y00949
X00938Y01231
X01338Y0097222
X01415Y0087
X01393Y00579
X01201Y00637
X0160782Y0116818
X01679Y01592
T04
X0163661Y0091939
Y0111624
T05
X0020405Y0059442
Y0077158
X0045995
Y0059442
T06
X00275Y00192
X00375
T07
X017Y001
X001
Y017
X017
T08
X0055389Y00184
X00672
T09
X00275Y00092
X00375
M30
