G04*
G04 #@! TF.GenerationSoftware,Altium Limited,Altium Designer,24.8.2 (39)*
G04*
G04 Layer_Color=8388736*
%FSLAX26Y26*%
%MOIN*%
G70*
G04*
G04 #@! TF.SameCoordinates,943EF9C2-7E4B-4E9F-8D88-1E315B4C2DD2*
G04*
G04*
G04 #@! TF.FilePolarity,Negative*
G04*
G01*
G75*
%ADD18C,0.060000*%
%ADD19R,0.070000X0.070000*%
%ADD20R,0.026475X0.026306*%
%ADD21R,0.029134X0.109843*%
%ADD22R,0.039848X0.041682*%
%ADD23R,0.041816X0.045532*%
%ADD24R,0.039848X0.045619*%
%ADD25R,0.031496X0.031496*%
%ADD26R,0.045619X0.039848*%
%ADD27R,0.047575X0.039848*%
%ADD28R,0.041816X0.044687*%
%ADD29R,0.074803X0.059055*%
%ADD30R,0.053150X0.015748*%
G04:AMPARAMS|DCode=31|XSize=15.748mil|YSize=25.591mil|CornerRadius=1.968mil|HoleSize=0mil|Usage=FLASHONLY|Rotation=90.000|XOffset=0mil|YOffset=0mil|HoleType=Round|Shape=RoundedRectangle|*
%AMROUNDEDRECTD31*
21,1,0.015748,0.021654,0,0,90.0*
21,1,0.011811,0.025591,0,0,90.0*
1,1,0.003937,0.010827,0.005906*
1,1,0.003937,0.010827,-0.005906*
1,1,0.003937,-0.010827,-0.005906*
1,1,0.003937,-0.010827,0.005906*
%
%ADD31ROUNDEDRECTD31*%
%ADD32R,0.031496X0.023622*%
%ADD33R,0.041662X0.051419*%
%ADD34R,0.039848X0.049533*%
%ADD35R,0.027559X0.033465*%
%ADD36R,0.027559X0.059055*%
%ADD37R,0.039370X0.031496*%
%ADD38R,0.102362X0.074803*%
%ADD39R,0.029528X0.033465*%
%ADD40O,0.009842X0.061024*%
%ADD41O,0.061024X0.009842*%
%ADD42R,0.049459X0.041662*%
%ADD43R,0.074803X0.051181*%
%ADD44R,0.020472X0.022047*%
%ADD45R,0.028163X0.026475*%
%ADD46R,0.026306X0.026475*%
%ADD47R,0.025591X0.013780*%
%ADD48R,0.025984X0.016142*%
%ADD49R,0.026475X0.028163*%
%ADD50O,0.009842X0.027559*%
%ADD51O,0.027559X0.009842*%
%ADD52R,0.102362X0.102362*%
%ADD53C,0.027685*%
%ADD54R,0.022638X0.013780*%
%ADD55R,0.013780X0.022638*%
%ADD56R,0.059055X0.059055*%
%ADD57C,0.059055*%
%ADD58C,0.126110*%
%ADD59C,0.057087*%
%ADD60C,0.062992*%
%ADD61R,0.062992X0.062992*%
%ADD62C,0.035433*%
%ADD63C,0.035559*%
%ADD64C,0.031622*%
G36*
X1780838Y931242D02*
X1781353Y931140D01*
X1781849Y930971D01*
X1782320Y930739D01*
X1782755Y930448D01*
X1783150Y930102D01*
X1783495Y929708D01*
X1783787Y929272D01*
X1784019Y928802D01*
X1784187Y928305D01*
X1784290Y927791D01*
X1784324Y927268D01*
Y876087D01*
X1784290Y875563D01*
X1784187Y875049D01*
X1784019Y874553D01*
X1783787Y874082D01*
X1783495Y873646D01*
X1783150Y873252D01*
X1782755Y872906D01*
X1782320Y872615D01*
X1781849Y872383D01*
X1781353Y872215D01*
X1780838Y872112D01*
X1780315Y872078D01*
X1764640D01*
Y856402D01*
X1764605Y855879D01*
X1764503Y855365D01*
X1764335Y854868D01*
X1764220Y854636D01*
X1764103Y854398D01*
X1763812Y853962D01*
X1763466Y853568D01*
X1763466D01*
Y853568D01*
X1763072Y853222D01*
X1762636Y852931D01*
X1762397Y852813D01*
X1762165Y852699D01*
X1761669Y852530D01*
X1761155Y852428D01*
X1760631Y852394D01*
X1725197Y852393D01*
D01*
X1725197D01*
X1724674Y852427D01*
X1724160Y852529D01*
X1723663Y852698D01*
X1723431Y852812D01*
X1723193Y852930D01*
X1722757Y853221D01*
X1722363Y853567D01*
Y853567D01*
X1722363D01*
X1722017Y853961D01*
X1721726Y854397D01*
X1721608Y854635D01*
X1721494Y854867D01*
X1721325Y855364D01*
X1721223Y855878D01*
X1721188Y856401D01*
D01*
Y856402D01*
Y872078D01*
X1705512D01*
X1704989Y872112D01*
X1704475Y872215D01*
X1703978Y872383D01*
X1703508Y872615D01*
X1703072Y872906D01*
X1702678Y873252D01*
X1702332Y873646D01*
X1702041Y874082D01*
X1701809Y874553D01*
X1701640Y875049D01*
X1701538Y875563D01*
X1701503Y876087D01*
Y927268D01*
X1701538Y927791D01*
X1701640Y928305D01*
X1701809Y928802D01*
X1702041Y929272D01*
X1702332Y929708D01*
X1702678Y930102D01*
X1703072Y930448D01*
X1703508Y930739D01*
X1703978Y930971D01*
X1704475Y931140D01*
X1704989Y931242D01*
X1705512Y931276D01*
X1780315D01*
X1780838Y931242D01*
D02*
G37*
G36*
X1761153Y1183211D02*
X1761668Y1183108D01*
X1762164Y1182940D01*
X1762396Y1182825D01*
X1762634Y1182708D01*
X1763070Y1182417D01*
X1763465Y1182071D01*
Y1182071D01*
X1763465D01*
X1763810Y1181677D01*
X1764102Y1181241D01*
X1764219Y1181002D01*
X1764334Y1180770D01*
X1764502Y1180274D01*
X1764604Y1179760D01*
X1764639Y1179236D01*
D01*
Y1179236D01*
Y1163560D01*
X1780315D01*
X1780838Y1163525D01*
X1781353Y1163423D01*
X1781849Y1163255D01*
X1782320Y1163023D01*
X1782755Y1162731D01*
X1783150Y1162386D01*
X1783495Y1161992D01*
X1783787Y1161555D01*
X1784019Y1161085D01*
X1784187Y1160589D01*
X1784290Y1160074D01*
X1784324Y1159551D01*
Y1108370D01*
X1784290Y1107847D01*
X1784187Y1107333D01*
X1784019Y1106836D01*
X1783787Y1106366D01*
X1783495Y1105930D01*
X1783150Y1105536D01*
X1782755Y1105190D01*
X1782320Y1104899D01*
X1781849Y1104667D01*
X1781353Y1104498D01*
X1780838Y1104396D01*
X1780315Y1104361D01*
X1705512D01*
X1704989Y1104396D01*
X1704475Y1104498D01*
X1703978Y1104667D01*
X1703508Y1104899D01*
X1703072Y1105190D01*
X1702678Y1105536D01*
X1702332Y1105930D01*
X1702041Y1106366D01*
X1701809Y1106836D01*
X1701640Y1107333D01*
X1701538Y1107847D01*
X1701503Y1108370D01*
Y1159551D01*
X1701538Y1160074D01*
X1701640Y1160589D01*
X1701809Y1161085D01*
X1702041Y1161555D01*
X1702332Y1161992D01*
X1702678Y1162386D01*
X1703072Y1162731D01*
X1703508Y1163023D01*
X1703978Y1163255D01*
X1704475Y1163423D01*
X1704989Y1163525D01*
X1705512Y1163560D01*
X1721187D01*
Y1179235D01*
X1721222Y1179759D01*
X1721324Y1180273D01*
X1721493Y1180769D01*
X1721607Y1181001D01*
X1721724Y1181240D01*
X1722016Y1181676D01*
X1722361Y1182070D01*
X1722361D01*
Y1182070D01*
X1722756Y1182416D01*
X1723192Y1182707D01*
X1723430Y1182824D01*
X1723662Y1182939D01*
X1724158Y1183107D01*
X1724673Y1183210D01*
X1725196Y1183244D01*
X1760630Y1183245D01*
D01*
X1760630D01*
X1761153Y1183211D01*
D02*
G37*
D18*
X1299000Y333000D02*
D03*
D19*
X1204000Y428000D02*
D03*
X1394000D02*
D03*
X1204000Y238000D02*
D03*
X1394000D02*
D03*
D20*
X790000Y656770D02*
D03*
Y617230D02*
D03*
X638000Y430230D02*
D03*
Y469770D02*
D03*
D21*
X1427000Y1347000D02*
D03*
Y1507236D02*
D03*
X1477000Y1347000D02*
D03*
Y1507236D02*
D03*
X1527000Y1347000D02*
D03*
Y1507236D02*
D03*
X1577000Y1347000D02*
D03*
Y1507236D02*
D03*
X1627000Y1347000D02*
D03*
Y1507236D02*
D03*
X1677000Y1347000D02*
D03*
Y1507236D02*
D03*
X1727000Y1347000D02*
D03*
Y1507236D02*
D03*
D22*
X1303000Y1380516D02*
D03*
Y1311484D02*
D03*
X1326000Y716484D02*
D03*
Y785516D02*
D03*
X646000Y765516D02*
D03*
Y696484D02*
D03*
X726000Y1076484D02*
D03*
Y1145516D02*
D03*
X794000Y1075484D02*
D03*
Y1144516D02*
D03*
X1224000Y786000D02*
D03*
Y716968D02*
D03*
D23*
X1586000Y557502D02*
D03*
Y624498D02*
D03*
X1234000Y1162502D02*
D03*
Y1229498D02*
D03*
X751000Y893502D02*
D03*
Y960498D02*
D03*
D24*
X1521000Y559452D02*
D03*
Y624548D02*
D03*
X1458000Y730452D02*
D03*
Y795548D02*
D03*
X1477000Y1143000D02*
D03*
Y1077905D02*
D03*
X1416000Y1142547D02*
D03*
Y1077453D02*
D03*
X1294000Y1142547D02*
D03*
Y1077453D02*
D03*
X1537000Y1143000D02*
D03*
Y1077905D02*
D03*
X1353000Y1142547D02*
D03*
Y1077453D02*
D03*
X577000Y763000D02*
D03*
Y697905D02*
D03*
D25*
X1578528Y686000D02*
D03*
X1519472D02*
D03*
X1098472Y1162000D02*
D03*
X1157528D02*
D03*
D26*
X1598547Y735000D02*
D03*
X1533453D02*
D03*
X1173547Y1260000D02*
D03*
X1108453D02*
D03*
X480452Y1021000D02*
D03*
X545548D02*
D03*
X480452Y848000D02*
D03*
X545548D02*
D03*
X1114954Y591332D02*
D03*
X1180049D02*
D03*
X1114954Y541332D02*
D03*
X1180049D02*
D03*
D27*
X1534000Y798000D02*
D03*
X1597139D02*
D03*
D28*
X1390000Y731898D02*
D03*
Y796102D02*
D03*
X1306000Y837898D02*
D03*
Y902102D02*
D03*
D29*
X1742914Y1057189D02*
D03*
Y978449D02*
D03*
D30*
X1636614Y1069000D02*
D03*
Y1043409D02*
D03*
Y1017819D02*
D03*
Y992228D02*
D03*
Y966638D02*
D03*
D31*
X1457354Y844409D02*
D03*
Y895591D02*
D03*
X1376646Y844409D02*
D03*
Y870000D02*
D03*
Y895591D02*
D03*
D32*
X1378000Y927409D02*
D03*
Y978591D02*
D03*
D33*
X1500000Y851446D02*
D03*
Y912554D02*
D03*
D34*
X1554000Y913590D02*
D03*
Y852410D02*
D03*
X802000Y822590D02*
D03*
Y761410D02*
D03*
X856000Y884590D02*
D03*
Y823410D02*
D03*
X1080000Y1366410D02*
D03*
Y1427590D02*
D03*
X795000Y1363410D02*
D03*
Y1424590D02*
D03*
D35*
X1521622Y1588000D02*
D03*
X1474378D02*
D03*
D36*
X642472Y252898D02*
D03*
X701528D02*
D03*
X524362D02*
D03*
D37*
X469244Y221992D02*
D03*
X756646D02*
D03*
X469244Y146008D02*
D03*
X756646D02*
D03*
D38*
X645000Y850354D02*
D03*
Y1019646D02*
D03*
X729000Y350354D02*
D03*
Y519646D02*
D03*
D39*
X814409Y953000D02*
D03*
X865591D02*
D03*
D40*
X968732Y1108465D02*
D03*
X988417D02*
D03*
X1008102D02*
D03*
X1027787D02*
D03*
X1047472D02*
D03*
X1067157D02*
D03*
X1086842D02*
D03*
X1106527D02*
D03*
X1126213D02*
D03*
X1145898D02*
D03*
X1165583D02*
D03*
X1185268D02*
D03*
Y791535D02*
D03*
X1165583D02*
D03*
X1145898D02*
D03*
X1126213D02*
D03*
X1106527D02*
D03*
X1086842D02*
D03*
X1067157D02*
D03*
X1047472D02*
D03*
X1027787D02*
D03*
X1008102D02*
D03*
X988417D02*
D03*
X968732D02*
D03*
D41*
X1235465Y1058268D02*
D03*
Y1038583D02*
D03*
Y1018898D02*
D03*
Y999213D02*
D03*
Y979528D02*
D03*
Y959843D02*
D03*
Y940158D02*
D03*
Y920472D02*
D03*
Y900787D02*
D03*
Y881102D02*
D03*
Y861417D02*
D03*
Y841732D02*
D03*
X918535D02*
D03*
Y861417D02*
D03*
Y881102D02*
D03*
Y900787D02*
D03*
Y920472D02*
D03*
Y940158D02*
D03*
Y959843D02*
D03*
Y979528D02*
D03*
Y999213D02*
D03*
Y1018898D02*
D03*
Y1038583D02*
D03*
Y1058268D02*
D03*
D42*
X1010535Y1171000D02*
D03*
X947465D02*
D03*
D43*
X999992Y1250732D02*
D03*
Y1467268D02*
D03*
X874008D02*
D03*
Y1250732D02*
D03*
D44*
X1007000Y599646D02*
D03*
Y630354D02*
D03*
D45*
X875646Y238964D02*
D03*
X837964D02*
D03*
X993159Y335000D02*
D03*
X1030841D02*
D03*
X973318Y386000D02*
D03*
X1011000D02*
D03*
D46*
X834230Y333000D02*
D03*
X873770D02*
D03*
X1005770Y457000D02*
D03*
X966230D02*
D03*
D47*
X834000Y449268D02*
D03*
Y482732D02*
D03*
X912000Y428268D02*
D03*
Y461732D02*
D03*
D48*
X873000Y481882D02*
D03*
Y442118D02*
D03*
D49*
X543000Y386159D02*
D03*
Y423841D02*
D03*
Y513682D02*
D03*
Y476000D02*
D03*
X702000Y617159D02*
D03*
Y654841D02*
D03*
D50*
X939535Y658465D02*
D03*
X919850D02*
D03*
X900165D02*
D03*
X880480D02*
D03*
X860795D02*
D03*
Y512795D02*
D03*
X880480D02*
D03*
X900165D02*
D03*
X919850D02*
D03*
X939535D02*
D03*
D51*
X827331Y625000D02*
D03*
Y605315D02*
D03*
Y585630D02*
D03*
Y565945D02*
D03*
Y546260D02*
D03*
X973000D02*
D03*
Y565945D02*
D03*
Y585630D02*
D03*
Y605315D02*
D03*
Y625000D02*
D03*
D52*
X900165Y585630D02*
D03*
D53*
X1735040Y1159551D02*
G03*
X1735040Y1159551I-9842J0D01*
G01*
X1770473D02*
G03*
X1770473Y1159551I-9842J0D01*
G01*
X1735040Y876087D02*
G03*
X1735040Y876087I-9842J0D01*
G01*
X1770473D02*
G03*
X1770473Y876087I-9842J0D01*
G01*
D54*
X1080465Y730000D02*
D03*
Y710315D02*
D03*
Y690630D02*
D03*
Y670945D02*
D03*
X1172000D02*
D03*
Y690630D02*
D03*
Y710315D02*
D03*
Y730000D02*
D03*
D55*
X1106547Y664547D02*
D03*
X1126232D02*
D03*
X1145917D02*
D03*
Y736398D02*
D03*
X1126232D02*
D03*
X1106547D02*
D03*
D56*
X459953Y594417D02*
D03*
D57*
Y771583D02*
D03*
X204047D02*
D03*
Y594417D02*
D03*
D58*
X100000Y100000D02*
D03*
Y1700000D02*
D03*
X1700000Y100000D02*
D03*
Y1700000D02*
D03*
D59*
X1636614Y919394D02*
D03*
Y1116244D02*
D03*
D60*
X375000Y192000D02*
D03*
D61*
X275000D02*
D03*
D62*
X553890Y184000D02*
D03*
X672000D02*
D03*
D63*
X535210Y776210D02*
D03*
X1396000Y170000D02*
D03*
X1338000Y972220D02*
D03*
X1201000Y637000D02*
D03*
X1070000Y949000D02*
D03*
X969000Y655000D02*
D03*
X1176000Y849000D02*
D03*
X938000Y1231000D02*
D03*
X1679000Y1592000D02*
D03*
X1626000D02*
D03*
X1607815Y1168185D02*
D03*
X1016000Y966000D02*
D03*
X1584000Y1069000D02*
D03*
X1521000Y1632000D02*
D03*
X1129000Y1428000D02*
D03*
X742000Y1425000D02*
D03*
X1415000Y870000D02*
D03*
X1635000Y846000D02*
D03*
X1587000Y504000D02*
D03*
X1393000Y579000D02*
D03*
X1392000Y685000D02*
D03*
X936000Y313000D02*
D03*
X1113000Y499000D02*
D03*
X1008000Y421000D02*
D03*
X756000Y104000D02*
D03*
X468000Y103000D02*
D03*
X585000Y252000D02*
D03*
X1302000Y1429000D02*
D03*
X493000Y531000D02*
D03*
X703000Y696000D02*
D03*
X702000Y581000D02*
D03*
X578000Y362000D02*
D03*
X1173000Y1358000D02*
D03*
X1065000Y1206000D02*
D03*
X792000Y702000D02*
D03*
X420000Y847000D02*
D03*
X421000Y1021000D02*
D03*
X974000Y494000D02*
D03*
X1009000Y553000D02*
D03*
X767000Y581000D02*
D03*
X1179501Y498332D02*
D03*
D64*
X1026000Y1057000D02*
D03*
X1131000Y996000D02*
D03*
X1181000D02*
D03*
X1266000Y676000D02*
D03*
X1221000D02*
D03*
X905000Y713000D02*
D03*
X952000D02*
D03*
X975042Y1006042D02*
D03*
X1117000Y879000D02*
D03*
X1045189Y848000D02*
D03*
X1067000Y903000D02*
D03*
X999000Y714213D02*
D03*
X1109300Y1034071D02*
D03*
X1077000Y1006000D02*
D03*
X1176000Y899000D02*
D03*
X1627000Y1270000D02*
D03*
X973875Y843189D02*
D03*
X1008000Y877000D02*
D03*
X1184000Y1054029D02*
D03*
X1426000Y1428000D02*
D03*
X1239000Y1340000D02*
D03*
X1423000Y1586000D02*
D03*
X1476000Y1426000D02*
D03*
X1677000Y1271000D02*
D03*
X1327000Y673000D02*
D03*
X1001000Y1301000D02*
D03*
X663000Y1149000D02*
D03*
X940346Y794000D02*
D03*
X1081000Y636000D02*
D03*
X1139000Y704000D02*
D03*
M02*
